<svg width="24" height="24" viewBox="0 0 24 24" fill="none" xmlns="http://www.w3.org/2000/svg">
<path fill-rule="evenodd" clip-rule="evenodd" d="M17.2305 5.19315C17.5486 5.40525 17.6346 5.83508 17.4225 6.15321C16.2822 7.86368 14.2423 9.32385 11.8553 10.2246C9.45853 11.1291 6.64374 11.4962 3.90296 10.9481C3.52803 10.8731 3.28488 10.5084 3.35987 10.1334C3.43485 9.7585 3.79958 9.51535 4.17451 9.59034C6.62605 10.0806 9.17666 9.7555 11.3664 8.92917C13.566 8.09916 15.3338 6.7901 16.2704 5.38517C16.4825 5.06703 16.9123 4.98106 17.2305 5.19315Z" fill="#633DCC"/>
<path fill-rule="evenodd" clip-rule="evenodd" d="M12 4.38462C7.79415 4.38462 4.38462 7.79415 4.38462 12C4.38462 16.2059 7.79415 19.6154 12 19.6154C16.2059 19.6154 19.6154 16.2059 19.6154 12C19.6154 7.79415 16.2059 4.38462 12 4.38462ZM3 12C3 7.02945 7.02945 3 12 3C16.9706 3 21 7.02945 21 12C21 16.9706 16.9706 21 12 21C7.02945 21 3 16.9706 3 12Z" fill="#633DCC"/>
<path fill-rule="evenodd" clip-rule="evenodd" d="M18.9232 12.6923C16.6576 12.6927 14.4305 13.2778 12.4573 14.3912C10.4841 15.5045 8.83168 17.1084 7.65995 19.0475C7.4622 19.3747 7.03661 19.4797 6.70937 19.282C6.38212 19.0842 6.27714 18.6586 6.47488 18.3314C7.76987 16.1883 9.59612 14.4157 11.7769 13.1853C13.9577 11.9548 16.4191 11.3081 18.9231 11.3077C19.4161 11.3077 19.897 11.3351 20.3729 11.38C20.7535 11.4159 21.033 11.7536 20.9971 12.1342C20.9612 12.5149 20.6235 12.7944 20.2428 12.7585C19.8014 12.7168 19.3648 12.6923 18.9232 12.6923Z" fill="#633DCC"/>
<path fill-rule="evenodd" clip-rule="evenodd" d="M7.7595 4.18012C7.95366 3.85073 8.37808 3.74112 8.70747 3.93529C11.4117 5.52939 13.5293 7.95361 14.7455 10.8476C15.9616 13.7415 16.2115 16.9507 15.4578 19.9979C15.366 20.3691 14.9907 20.5956 14.6195 20.5038C14.2483 20.412 14.0219 20.0367 14.1137 19.6655C14.7958 16.9076 14.5697 14.0031 13.469 11.384C12.3683 8.76485 10.4518 6.57082 8.00433 5.12808C7.67494 4.93392 7.56533 4.5095 7.7595 4.18012Z" fill="#633DCC"/>
</svg>
