<svg width="64" height="64" viewBox="0 0 64 64" fill="none" xmlns="http://www.w3.org/2000/svg">
<path d="M21.3333 26.6666H13.3333V18.6666H8V26.6666H0V31.9999H8V39.9999H13.3333V31.9999H21.3333V26.6666ZM48 29.3333C52.4267 29.3333 55.9733 25.7599 55.9733 21.3333C55.9733 16.9066 52.4267 13.3333 48 13.3333C47.1467 13.3333 46.32 13.4666 45.5733 13.7066C47.0933 15.8666 47.9733 18.4799 47.9733 21.3333C47.9733 24.1866 47.0667 26.7733 45.5733 28.9599C46.32 29.1999 47.1467 29.3333 48 29.3333ZM34.6667 29.3333C39.0933 29.3333 42.64 25.7599 42.64 21.3333C42.64 16.9066 39.0933 13.3333 34.6667 13.3333C30.24 13.3333 26.6667 16.9066 26.6667 21.3333C26.6667 25.7599 30.24 29.3333 34.6667 29.3333ZM52.32 35.0933C54.5333 37.0399 56 39.5199 56 42.6666V47.9999H64V42.6666C64 38.5599 57.68 36.0266 52.32 35.0933ZM34.6667 34.6666C29.3333 34.6666 18.6667 37.3333 18.6667 42.6666V47.9999H50.6667V42.6666C50.6667 37.3333 40 34.6666 34.6667 34.6666Z" fill="#D20F50"/>
</svg>
