<svg width="24" height="24" viewBox="0 0 24 24" fill="none" xmlns="http://www.w3.org/2000/svg">
<path fill-rule="evenodd" clip-rule="evenodd" d="M14.2782 8.16667C14.2782 7.7678 14.6015 7.44445 15.0004 7.44445H20.7782C21.1771 7.44445 21.5004 7.7678 21.5004 8.16667C21.5004 8.56554 21.1771 8.88889 20.7782 8.88889H15.0004C14.6015 8.88889 14.2782 8.56554 14.2782 8.16667Z" fill="#633DCC"/>
<path fill-rule="evenodd" clip-rule="evenodd" d="M15.8557 10.8615C16.7372 10.3892 17.7551 10.2371 18.7362 10.431C19.7172 10.6248 20.6007 11.1527 21.2363 11.9248C21.8719 12.6968 22.2203 13.6653 22.2221 14.6653C22.2225 14.8571 22.1465 15.0412 22.0111 15.1769C21.8756 15.3126 21.6917 15.3889 21.4999 15.3889H15.1083C15.1187 15.4295 15.13 15.47 15.1423 15.5103C15.3359 16.1475 15.7443 16.698 16.2981 17.0679C16.8519 17.4379 17.5167 17.6044 18.1795 17.5393C18.8423 17.4741 19.4621 17.1813 19.9332 16.7106C20.2154 16.4287 20.6727 16.4289 20.9546 16.7111C21.2365 16.9933 21.2363 17.4506 20.9541 17.7325C20.2466 18.4392 19.3161 18.879 18.3208 18.9768C17.3256 19.0746 16.3272 18.8245 15.4957 18.269C14.6642 17.7135 14.0509 16.887 13.7602 15.9301C13.6521 15.5741 13.5911 15.2083 13.5768 14.8416C13.5629 14.7856 13.5555 14.727 13.5555 14.6667C13.5555 14.6054 13.5631 14.5459 13.5774 14.4891C13.5988 13.9883 13.7072 13.4912 13.9016 13.0211C14.2836 12.0969 14.9742 11.3337 15.8557 10.8615ZM15.1117 13.9444H20.6839C20.5791 13.5436 20.3882 13.1672 20.1212 12.8429C19.6979 12.3287 19.1095 11.9771 18.4561 11.848C17.8028 11.7189 17.1249 11.8202 16.5378 12.1347C15.9508 12.4492 15.4909 12.9575 15.2364 13.5729C15.1862 13.6944 15.1446 13.8185 15.1117 13.9444Z" fill="#633DCC"/>
<path fill-rule="evenodd" clip-rule="evenodd" d="M2 6.72222C2 6.32335 2.32335 6 2.72222 6H7.59722C8.50706 6 9.37964 6.36143 10.023 7.00479C10.6663 7.64814 11.0278 8.52072 11.0278 9.43056C11.0278 10.2756 10.716 11.0886 10.1561 11.7155C10.6023 11.904 11.0125 12.1781 11.3617 12.5272C12.0727 13.2383 12.4722 14.2027 12.4722 15.2083C12.4722 16.2139 12.0727 17.1784 11.3617 17.8894C10.6506 18.6005 9.68617 19 8.68056 19H2.72222C2.32335 19 2 18.6766 2 18.2778V6.72222ZM3.44444 12.8611V17.5556H8.68056C9.30308 17.5556 9.9001 17.3083 10.3403 16.8681C10.7805 16.4279 11.0278 15.8309 11.0278 15.2083C11.0278 14.5858 10.7805 13.9888 10.3403 13.5486C9.9001 13.1084 9.30308 12.8611 8.68056 12.8611H3.44444ZM7.59722 11.4167H3.44444V7.44444H7.59722C8.12397 7.44444 8.62915 7.65369 9.00162 8.02616C9.37408 8.39863 9.58333 8.90381 9.58333 9.43056C9.58333 9.9573 9.37408 10.4625 9.00162 10.8349C8.62915 11.2074 8.12397 11.4167 7.59722 11.4167Z" fill="#633DCC"/>
</svg>
