<svg width="123" height="173" viewBox="0 0 123 173" fill="none" xmlns="http://www.w3.org/2000/svg">
<path fill-rule="evenodd" clip-rule="evenodd" d="M108.194 97.7397C106.047 87.5609 98.4289 79.6621 88.1849 75.7269C86.2155 74.6122 84.3069 69.8319 81.66 68.956C81.236 68.8161 81.9054 69.933 81.66 69.9996C80.7848 70.2376 79.8042 70.2625 78.8381 69.4027C77.1112 67.8676 76.5692 63.381 75.5189 61.3537C69.9813 50.6593 56.1538 54.8435 54.3015 66.6658C53.0096 67.508 51.1837 68.2499 49.7783 68.9281C48.3303 69.6268 47.0567 71.3201 45.5648 71.9251C44.2335 72.4648 42.04 72.0825 40.6985 72.5535C34.5288 74.7184 29.3032 77.4502 25.2064 82.9857C24.3431 84.1531 23.3701 85.5878 22.5845 86.7677C18.5345 91.4316 15.7215 96.6594 13.1307 102.267C5.88221 118.73 3.91061 136.957 2.14174 154.694C2.18195 157.797 0.123413 166.403 3.16804 167.891C2.98611 168.079 3.05203 168.459 3.38966 168.455C11.1097 168.377 18.8116 169.069 26.4119 170.412C30.0788 171.061 33.7262 171.95 37.4614 172.096C45.2148 172.042 52.9408 170.742 60.6843 171.973C69.993 171.973 81.3063 171.701 91.6631 171.303C101.342 170.931 111.072 171.771 120.631 170.125C121.388 170.005 121.757 169.082 121.599 168.42C120.477 164.332 119.927 160.125 119.297 155.941C119.423 153.256 119.198 150.455 118.206 147.955C115.613 131.08 112.288 114.315 108.194 97.7397Z" fill="white"/>
<path fill-rule="evenodd" clip-rule="evenodd" d="M105.071 119.921C104.867 120.913 104.58 121.906 104.199 122.845C103.833 123.752 103.281 124.565 102.9 125.461C102.849 125.582 102.765 125.673 102.665 125.743L102.697 125.987L102.725 126.23C102.915 127.875 103.129 129.516 103.313 131.161L103.403 131.984C103.767 135.419 104.341 138.836 104.786 142.262C105.223 145.616 105.667 148.97 106.142 152.32C106.632 155.774 107.132 159.223 107.715 162.662C107.962 164.115 108.219 165.566 108.486 167.017L108.693 168.126C110.822 168.639 111.404 171.607 109.236 172.704C108.253 173.199 106.988 173.079 106.177 172.301C105.335 171.49 105.299 170.027 105.104 168.928L104.916 167.906C103.506 160.229 102.282 152.462 101.71 144.675C101.563 142.665 101.439 140.653 101.359 138.639C101.282 136.744 101.319 134.85 101.29 132.956L101.28 132.439C101.235 130.419 101.272 128.402 101.325 126.382C101.331 126.136 101.342 125.89 101.354 125.642C101.283 125.559 101.232 125.459 101.211 125.363L101.183 125.237C101.113 124.91 101.192 124.528 101.443 124.294C101.551 122.918 101.693 121.543 101.732 120.168C101.735 120.056 101.898 120.059 101.907 120.168C101.998 121.339 102.18 122.512 102.363 123.684C103.537 122.74 104.405 121.183 104.918 119.879C104.955 119.785 105.093 119.819 105.071 119.921ZM77.284 65.2148C77.4788 66.1062 77.8648 66.9067 78.3811 67.6515C78.6272 68.0074 78.907 68.3385 79.2432 68.6153C79.531 68.8519 79.8591 69.0072 80.1653 69.213C80.6113 69.1434 81.0764 69.3118 81.3891 69.64L81.34 69.1602C81.3239 69.0057 81.581 68.9749 81.611 69.1243C82.9645 75.9546 84.1993 82.7886 85.2678 89.6672L85.7358 92.7052L86.1767 95.5571C86.9084 100.31 87.6166 105.06 88.1498 109.847C88.8595 116.235 89.4571 122.641 89.8929 129.055C90.3309 135.515 90.6004 141.979 90.7923 148.45C90.8399 150.082 90.8911 151.712 90.9409 153.344L91.2712 151.393C91.6008 149.442 91.9245 147.49 92.2021 145.53C93.1967 138.516 93.9921 131.453 94.3803 124.379C94.7362 117.906 94.6175 111.304 92.9711 104.998C92.5559 103.411 92.0483 101.849 91.436 100.327C90.8421 98.8477 90.0313 97.476 89.3919 96.0185C88.6493 94.3216 88.4266 92.7213 88.8089 90.8947C89.1429 89.3032 89.7296 87.8069 89.8343 86.1686C90.0313 83.1284 89.0426 80.1842 87.6452 77.5242C87.2768 76.8225 86.8886 76.1304 86.4829 75.4449C85.2561 73.3722 83.8726 71.375 82.4371 69.4605C82.3595 69.3587 82.5236 69.2452 82.607 69.3294C83.9158 70.6235 85.3469 71.8957 86.5246 73.3085C87.0973 73.9962 87.6562 74.6971 88.1849 75.4171C93.9906 76.3875 98.979 80.0048 102.389 84.7821C106.259 90.2026 108.217 96.7275 109.665 103.153C111.276 110.293 112.634 117.499 114.081 124.675C115.579 132.1 117.068 139.526 118.576 146.949C119.325 150.634 120.073 154.321 120.821 158.007C121.2 159.874 121.597 161.737 122.014 163.597C122.227 164.551 122.457 165.503 122.654 166.459C122.877 167.538 122.67 168.228 121.939 169.021C121.671 169.315 121.245 169.31 120.91 169.154L120.806 169.105L120.705 169.056C120.292 168.853 119.967 168.642 119.71 168.19C119.427 167.693 119.382 167.142 119.285 166.589C119.105 165.572 118.927 164.555 118.748 163.537C118.48 162.014 118.188 160.495 117.891 158.976L116.402 151.388C116.005 149.364 115.607 147.342 115.207 145.319C113.779 138.087 112.35 130.857 110.92 123.627C109.547 116.684 108.332 109.694 106.77 102.792L106.681 102.403L106.591 102.015C105.193 96.0647 103.241 90.3088 99.6989 85.2663C96.9722 81.389 93.1857 77.9262 88.7269 76.1736C89.0411 76.6262 89.3429 77.0869 89.6307 77.5578C91.4375 80.5116 92.7573 84.0175 92.4482 87.5345C92.2966 89.2527 91.6433 90.9408 91.7048 92.6729C91.7627 94.2117 92.7141 95.563 93.3717 96.9018C94.8651 99.9361 95.9446 103.16 96.6412 106.468C98.0386 113.11 98.0334 119.944 97.5523 126.687C97.0293 134.016 96.0362 141.344 94.9054 148.602C94.3246 152.325 93.5526 156.017 92.9616 159.734C92.6694 161.566 92.2717 163.394 91.9231 165.218L91.7576 166.089C91.6645 166.572 91.5679 167.054 91.4565 167.531L91.3884 167.816V167.868C91.3848 168.219 91.2888 168.51 91.1343 168.742C90.9226 169.422 90.659 170.085 90.3096 170.72C90.1302 171.046 89.8702 171.228 89.5867 171.295C89.3018 171.946 88.6566 172.448 87.8869 172.445L77.7528 172.406C71.8673 172.383 65.981 172.344 60.0955 172.312C58.6102 172.304 57.1264 172.276 55.6426 172.238C54.251 172.199 52.9173 172.031 51.5419 171.858C49.9885 171.663 49.1462 170.563 49.3784 169.01C49.4297 168.668 49.4853 168.328 49.5381 167.987C49.2283 168.089 48.8606 168.041 48.6116 167.798L48.378 167.57C48.0542 167.249 47.7642 166.935 47.5592 166.507C47.3468 166.067 47.1754 165.603 46.9879 165.154C46.5843 164.188 46.191 163.219 45.8087 162.246C45.0434 160.298 44.2772 158.344 43.5653 156.376C42.1559 152.48 40.9086 148.525 39.8241 144.525C37.89 137.389 36.491 130.116 35.6091 122.777L35.3982 121.028L35.3369 120.511C35.0024 117.667 34.721 114.778 34.854 111.94C34.9362 110.163 35.2114 108.373 35.8754 106.713C36.4879 105.182 37.4333 103.873 38.3323 102.504L38.4352 102.346L38.5386 102.185C39.3248 100.942 39.9504 99.6424 39.9818 98.1329C40.0135 96.6008 39.5674 95.1104 39.0688 93.6763L38.9445 93.3226L38.861 93.0889C37.8 90.125 36.5926 87.2034 36.9908 83.9787C37.5789 79.2299 40.4568 75.4017 44.0777 72.4494C40.8575 73.0873 37.6702 74.347 34.8572 75.9451C31.535 77.8332 28.5441 80.3255 25.9647 83.1379C21.0906 88.4536 17.6108 94.8313 14.7623 101.416C11.7806 108.307 9.56946 115.528 7.90312 122.844C6.22741 130.201 5.1056 137.676 4.33952 145.18C3.9575 148.915 3.65715 152.66 3.40821 156.406C3.28136 158.325 3.18541 160.247 3.03681 162.164C2.88828 164.078 2.82164 166.023 2.3543 167.886C2.13619 168.755 0.66467 168.843 0.506986 167.886C0.157049 165.75 0.254894 163.541 0.352522 161.377L0.361384 161.181C0.457474 159.026 0.582787 156.873 0.73117 154.72C1.0346 150.319 1.43991 145.924 1.96906 141.544C3.82428 126.167 7.24551 110.871 13.9562 96.8337C17.1158 90.2231 21.1713 83.7993 26.8128 79.0255C29.4987 76.7544 32.5268 74.9417 35.7901 73.6293C38.7085 72.4545 41.6731 71.8986 44.7739 71.9001C46.3287 70.7085 47.9986 69.67 49.6662 68.7823C49.7666 68.7289 49.872 68.8585 49.7886 68.942C49.7453 68.9837 49.7036 69.0269 49.6604 69.0672C49.8493 69.0797 50.0442 69.1683 50.2185 69.3521C50.8315 69.9944 51.3486 70.7979 51.8107 71.6321C52.5153 72.5117 53.1861 73.4198 53.8892 74.2899C55.0142 75.6829 56.1648 77.0561 57.33 78.4184C59.2869 80.7079 61.3076 82.9534 63.4154 85.1088L63.767 85.4677C64.8597 86.5743 65.9656 87.8992 67.2576 88.7752L67.3264 88.8213C67.872 89.1765 68.258 89.241 68.7231 88.7107C69.1457 88.2273 69.4972 87.667 69.859 87.1346L69.9425 87.0123C71.7882 84.3303 73.4998 81.5486 75.0488 78.685C75.7548 77.3813 76.4264 76.0594 77.0636 74.7227L77.2533 74.3214C77.5997 73.5846 77.9761 72.8617 78.2625 72.103C78.3284 71.925 78.3936 71.747 78.4573 71.5705C77.4825 70.9312 76.7274 69.5477 76.4535 68.4637C76.1686 67.3388 76.3129 66.1838 76.8197 65.1548C76.9156 64.9607 77.2379 65.009 77.284 65.2148ZM29.1957 110.945C29.0608 115.223 28.979 119.506 28.7777 123.781L28.7082 125.241C29.0222 125.591 29.2063 125.995 29.0593 126.549C29.0022 126.761 28.8334 126.953 28.6229 127.024L28.5573 128.381C28.2587 134.487 27.9087 140.58 27.269 146.671C26.4691 154.293 25.5438 161.902 24.6202 169.51C24.4887 170.588 23.7396 171.442 22.5745 171.284C21.3956 171.125 20.9175 170.098 21.0723 169.028C21.6803 164.833 22.265 160.632 22.7773 156.423L23.3607 151.625C24.0921 145.629 24.8408 139.634 25.7033 133.657C26.0639 131.159 26.4383 128.662 26.8141 126.165L26.6828 125.995C26.1457 125.297 25.5902 124.615 25.041 123.927C23.9858 122.602 22.9445 121.288 21.9774 119.901C21.9293 119.832 22.0269 119.729 22.0964 119.782C23.4518 120.784 24.7347 121.854 26.0251 122.943L27.1547 123.899C27.8046 119.585 28.4483 115.269 29.0222 110.945C29.0362 110.836 29.1987 110.828 29.1957 110.945ZM48.6929 69.9996C47.8777 70.7686 47.0435 71.5207 46.2218 72.2854L45.9208 72.5673L45.6212 72.85C44.1772 74.2196 42.7935 75.6463 41.6405 77.2839C39.5239 80.2911 38.2628 83.9582 39.1431 87.6304C39.8735 90.6713 41.5493 93.4288 41.9996 96.5458C42.2253 98.108 42.1156 99.6775 41.5275 101.153C40.9271 102.657 39.9678 103.947 39.1059 105.305C37.2337 108.255 36.9784 111.492 37.1642 114.911C37.3591 118.48 37.769 122.051 38.2752 125.588C39.2993 132.755 40.8436 139.847 42.8875 146.793C43.9105 150.271 45.1188 153.675 46.3214 157.093C46.9198 158.794 47.6177 160.455 48.337 162.108C48.7163 162.978 49.1045 163.843 49.4993 164.707C49.3535 163.487 49.3535 162.235 49.2825 161.023C49.1807 159.286 49.0503 157.553 48.9317 155.817C48.6885 152.296 48.4717 148.771 48.2784 145.246C47.5928 132.678 47.089 120.097 47.1256 107.508C47.1446 101.213 47.2728 94.9177 47.5438 88.6287C47.6705 85.6669 47.9166 82.708 48.1385 79.7506L48.1853 79.1164C48.3824 76.4622 48.6175 73.8014 49.021 71.1699C48.9016 70.8997 48.7976 70.6265 48.7207 70.346L48.6929 70.2405L48.7134 70.2442C48.6951 70.1614 48.6885 70.0801 48.6929 69.9996ZM55.7458 59.1829C55.7627 59.1096 55.8667 59.1162 55.885 59.1829C56.3449 60.7304 56.1823 62.4332 55.7861 63.9903C55.573 64.834 55.2698 65.6528 54.9028 66.4423L54.7747 66.7184C54.4605 67.3908 54.1067 68.0836 53.4945 68.5025C53.2396 68.6776 52.7826 68.6886 52.5277 68.5025L52.3973 68.4037C52.3761 68.3868 52.3549 68.37 52.3343 68.3524C52.0956 68.1525 51.9784 67.7116 52.0883 67.4208C52.371 66.6701 53.0133 66.1186 53.4571 65.4499C53.8504 64.856 54.199 64.229 54.4876 63.5772C55.1116 62.1666 55.3914 60.6703 55.7458 59.1829Z" fill="black"/>
<path fill-rule="evenodd" clip-rule="evenodd" d="M73.8056 70.1797C70.6029 70.1709 67.6711 69.5462 64.8895 68.1796C61.5308 67.0832 57.8629 66.4863 55.1377 64.0591C53.8106 64.3411 52.4498 62.9781 51.349 62.1659C49.5532 68.7765 40.2073 67.6771 36.2584 63.4051C33.8427 61.3639 32.8711 56.3155 37.0659 54.9797C30.193 50.3099 27.7105 42.2426 28.1829 33.5136C28.68 18.8707 39.9329 3.64725 54.3965 1.10746C57.2499 0.605329 60.1795 0.658353 63.0204 1.25555C64.6075 1.59984 66.1404 2.26727 67.8388 2.23695C74.4238 1.19564 81.6562 1.31531 87.0956 5.5314C95.7884 11.3498 96.9968 22.9916 95.981 32.3515L96.022 32.439C95.5167 35.8748 94.6774 39.0216 93.0888 41.0928C92.965 44.0707 91.9309 50.4278 91.854 52.9414C92.0393 64.6355 85.4001 69.826 73.8056 70.1797Z" fill="white"/>
<path fill-rule="evenodd" clip-rule="evenodd" d="M35.5518 54.8186C14.7326 36.4163 36.0909 -4.99685 63.1787 0.497773C65.9208 1.41619 68.7046 1.73486 71.5433 1.05439C85.8513 -1.18065 97.5557 10.9645 96.9508 25.0156C97.0518 27.4189 97.032 29.8244 96.772 32.218C96.4754 35.3643 95.6647 38.7294 93.8557 41.3447C93.8352 43.1018 92.801 49.6918 92.6348 52.792L92.6033 53.4395C92.4385 56.6261 92.0833 59.8757 90.6829 62.7811C86.3772 70.5862 75.2851 72.2612 67.3321 69.9879L67.001 69.8787C65.5238 69.3873 63.8488 68.7333 62.9114 67.4948C62.4155 66.8415 63.2358 66.0066 63.9184 66.1838C64.7973 66.4131 65.5253 66.9492 66.3455 67.3293C71.6949 69.6949 78.0228 68.9025 83.3034 66.6936L83.463 66.6262C92.9211 62.7855 90.3307 49.1235 91.5757 41.333C91.8584 31.4407 83.611 24.7042 77.3974 18.1615L77.2113 17.9542C76.5727 17.246 75.8989 16.5556 75.0112 16.4046C74.7681 17.1425 74.1697 17.7705 73.6153 18.3087L72.3614 19.6645C71.1068 21.0187 69.85 22.3674 68.575 23.7039C62.3848 29.9945 56.0781 38.5353 46.5365 39.1783C47.1232 39.7093 47.6373 40.3157 48.2518 40.816C48.5111 41.0752 48.2467 41.511 47.8988 41.4224C47.2506 41.2561 46.8354 40.6409 46.4098 40.1605C41.2564 37.9962 37.0242 45.9932 41.3904 49.3044C43.0101 51.0196 47.7428 49.7145 46.6486 51.8297C47.8431 55.5773 49.6822 59.3469 52.7919 61.8532C53.7052 62.5431 55.1319 62.8925 55.7376 63.9076C55.8841 64.1529 55.8094 64.5521 55.5347 64.6824C54.2135 65.2984 52.7941 64.262 51.779 63.4813C46.4208 73.9604 26.7704 62.3827 35.5518 54.8186ZM67.3951 3.61461L66.8582 3.50959C61.1324 2.37651 57.3584 1.2547 51.3051 3.30335C37.814 7.81129 29.1164 22.1715 29.4924 36.1285C29.5012 44.0575 33.4303 54.1675 42.2803 55.2932C43.6183 55.3994 43.6393 57.4764 42.3208 57.4142L42.2805 57.412C40.0989 57.2757 37.9871 56.484 36.187 55.2668C33.772 59.1792 36.1922 62.7299 39.955 64.4114C43.7676 66.4241 47.8431 65.7825 50.3911 62.2267C48.0658 59.6428 46.352 55.7802 45.9558 52.3548C39.426 54.8889 34.5014 45.5479 38.7497 40.594C40.2446 38.4621 43.1468 37.1291 45.539 38.643C55.8321 34.6814 63.0183 26.262 69.8984 18.0145L70.2653 17.5966C71.4701 16.2356 74.24 13.161 74.5476 12.7636C74.8926 12.3167 75.5898 12.719 75.5986 13.199C75.6044 13.5403 75.5854 13.8864 75.5473 14.2317C76.8283 15.0582 77.8661 16.3131 78.8218 17.4717C85.9546 23.0719 91.7552 28.9371 93.5591 37.8219C94.6796 36.5134 95.1879 34.7959 95.5548 33.1556C96.3231 22.3351 94.2577 9.37766 83.0983 4.68376C77.735 2.0221 72.9503 3.2419 67.3951 3.61461ZM42.0881 44.2523C41.6234 43.8378 44.6935 43.7873 44.9831 44.1125L45.049 44.1352C46.1484 44.5219 48.161 45.7684 47.173 47.0618C45.7639 48.3904 44.7821 44.4464 42.0881 44.2523Z" fill="#221E1F"/>
<path fill-rule="evenodd" clip-rule="evenodd" d="M76.4789 57.5709C75.4389 57.1469 74.5102 56.4386 73.8321 55.5341C73.5962 55.2192 73.5347 54.8874 73.5845 54.5835C73.6402 54.2422 73.8423 53.9324 74.1177 53.7251C74.3938 53.5171 74.7395 53.4139 75.0735 53.4666C75.3635 53.512 75.6528 53.6709 75.8813 54.0005L75.9289 54.0664C76.3324 54.6128 76.8583 55.0603 77.4574 55.3496C78.0345 55.6279 78.6798 55.7575 79.3484 55.6821C80.6206 55.5385 81.498 54.8501 82.4303 53.9148C82.5453 53.7969 82.661 53.6753 82.7775 53.5516C82.8507 53.4395 82.9525 53.367 83.0653 53.3296C83.1913 53.2872 83.3334 53.2901 83.463 53.3355C83.589 53.3787 83.701 53.4622 83.7757 53.5728C83.8475 53.6775 83.8878 53.8072 83.8746 53.9566C83.7897 54.9248 83.2829 55.7897 82.5636 56.4687C81.7653 57.223 80.7063 57.7445 79.7095 57.9276C78.6109 58.129 77.4918 57.9847 76.4789 57.5709ZM80.2273 42.6243C81.3962 43.3347 83.1759 44.9913 81.9191 46.7528C80.4397 48.3062 78.3092 46.5257 77.2597 45.7201C76.2863 45.0961 75.1928 46.7015 76.0959 47.4302C83.6813 53.0484 86.7595 42.8103 80.8183 41.7893C80.1643 41.6765 79.9212 42.4045 80.2273 42.6243ZM66.6341 36.0891C66.763 34.486 69.2041 34.1219 69.4465 35.7083C69.664 37.1291 69.4077 38.4342 68.7683 39.7137C68.1567 40.9361 66.6202 40.3663 66.5037 39.2531C66.3485 37.7612 66.5535 37.0859 66.6341 36.0891ZM85.212 35.3793C85.5518 34.9336 86.0432 34.6292 86.6321 34.8012C88.4711 35.3388 87.9291 37.9509 87.2832 39.2216C86.9324 39.9122 85.7979 40.0873 85.2852 39.4794C84.4495 38.4884 84.0497 36.5085 85.1116 35.5321C85.1402 35.4817 85.1724 35.4307 85.212 35.3793ZM68.7427 29.0746L69.0327 29.0237C69.9313 28.8682 71.049 28.7188 71.6847 29.4416C72.0216 29.8248 72.138 30.5371 71.6847 30.904C70.8871 31.5495 70.006 31.2994 69.051 31.354C68.2637 31.3992 67.5071 31.5295 66.7484 31.7464C65.0851 32.2221 63.7294 33.0904 62.3086 34.044C62.1218 34.169 61.9314 33.9305 62.0208 33.756C62.8411 32.1489 64.4303 30.8286 66.0226 30.0239C66.8721 29.5943 67.8023 29.238 68.7427 29.0746ZM83.5355 28.3546L83.7574 28.4001C86.1773 28.906 89.3207 29.9167 90.4669 32.2942C90.5101 32.6304 90.464 32.7025 90.4266 32.7496L90.4141 32.7652C90.3834 32.8054 90.3585 32.8608 90.2127 32.9066C90.1725 32.8969 90.1314 32.8867 90.0904 32.8759C89.5653 32.7382 89.15 32.5485 88.7472 32.3517L88.3114 32.1368C87.8054 31.8886 87.2949 31.6494 86.7537 31.4728C85.5987 31.096 84.4115 30.8306 83.2052 30.6889C82.9437 30.6582 82.6925 30.57 82.4933 30.4187C82.3051 30.2751 82.1616 30.0763 82.0956 29.8121C82.0107 29.4702 82.0349 29.2113 82.218 28.9028C82.3564 28.6712 82.5534 28.5105 82.7804 28.4183C83.0111 28.3244 83.2741 28.3022 83.5355 28.3546Z" fill="black"/>
</svg>
