<svg width="126" height="173" viewBox="0 0 126 173" fill="none" xmlns="http://www.w3.org/2000/svg">
<path fill-rule="evenodd" clip-rule="evenodd" d="M121.672 169.939C124.638 169.796 123.445 164.605 123.233 162.699C120.884 155.736 121.436 148.139 120.512 140.841C119.937 134.028 119.197 127.236 118.575 120.428C117.354 106.609 108.582 78.4763 98.5712 73.952C97.3106 68.4172 92.102 63.2499 85.5129 63.2499C81.0184 57.9279 75.6085 54.1826 68.6699 54.9389C65.803 55.069 63.0217 58.1118 60.2746 58.6988C58.7365 58.911 45.0842 58.3653 42.3495 59.9899C40.4446 60.9686 38.725 62.7762 39.2851 65.0787C40.1787 67.8672 37.4015 64.8498 31.6081 67.8265C19.7945 74.9242 26.8538 84.4195 27.1666 84.7137C19.7945 94.9748 13.3509 103.3 10.3695 115.841C8.43729 125.154 8.65482 134.766 7.03584 144.125C6.46427 147.37 5.58732 150.504 4.63837 153.656C3.60994 157.78 3.10992 168.06 2.543 168.152C1.51042 168.409 3.13979 170.53 4.2339 170.531C34.5686 175.565 65.3816 170.74 95.8786 169.951C104.474 169.653 113.077 169.584 121.672 169.939Z" fill="white"/>
<path fill-rule="evenodd" clip-rule="evenodd" d="M75.6949 85.6198C75.7087 85.4803 75.8961 85.481 75.9107 85.6198L76.1243 87.6875C76.3851 90.2138 76.6358 92.7349 76.8181 95.2727C77.0448 98.4376 77.1959 101.601 77.2693 104.773C77.5243 115.82 77.5745 126.872 77.5963 137.921C79.0901 137.817 80.5839 137.718 82.0784 137.621C83.0926 137.556 84.1062 137.493 85.1204 137.431L87.707 137.274L88.7714 137.209C89.4906 137.164 90.308 136.983 90.8108 137.621C91.0128 137.876 91.1138 138.208 90.9256 138.511C90.4926 139.209 89.8278 139.185 89.0751 139.215C88.3652 139.244 87.6561 139.272 86.9463 139.3C85.4249 139.358 83.9042 139.414 82.3828 139.457C80.7858 139.502 79.1903 139.538 77.5941 139.566C77.5781 144.23 77.3848 148.889 77.1763 153.548L77.0819 155.645C76.8269 161.315 76.5522 166.99 76.1621 172.653C76.1301 173.116 75.4748 173.115 75.4428 172.653C75.0032 166.276 74.7133 159.885 74.4263 153.499C74.2178 148.87 74.0965 144.239 74.0391 139.607C73.8277 139.608 73.617 139.611 73.4063 139.612C67.4151 139.637 61.4261 139.664 55.4357 139.608C55.4459 139.619 55.4553 139.632 55.4626 139.647C55.8956 140.671 55.937 141.977 55.9262 143.076C55.9145 144.336 55.7445 145.581 55.4546 146.806C54.4149 151.196 51.7347 155.128 48.6809 158.379L48.5812 158.484C47.861 159.246 47.0347 160.011 46.5925 160.981C46.1408 161.97 45.984 163.128 45.7611 164.193L45.735 164.315L44.8635 168.342C44.5866 169.621 44.508 171.487 43.4959 172.409C42.5515 173.271 41.3005 172.821 40.8562 171.712C40.5091 170.847 40.8548 169.897 41.0603 169.032L42.6707 162.26C42.9353 161.156 43.2244 160.044 43.7955 159.052C44.3804 158.036 45.238 157.299 46.1131 156.546C47.7701 155.119 49.2913 153.485 50.578 151.716C51.864 149.947 52.9625 147.998 53.7334 145.948C54.1192 144.922 54.4353 143.857 54.654 142.782C54.861 141.762 54.8596 140.705 55.0812 139.697C55.0964 139.627 55.1553 139.579 55.2221 139.558C55.2061 139.513 55.2308 139.452 55.294 139.449L60.1932 139.133C64.5481 138.853 68.9031 138.564 73.2537 138.235L74.0224 138.179C73.9628 131.999 74.0137 125.818 74.1255 119.636C74.2273 113.967 74.2294 108.296 74.398 102.628C74.4823 99.8144 74.6625 97.0078 74.8637 94.2004C75.0693 91.329 75.3985 88.4824 75.6949 85.6198ZM29.6928 118.49C29.6406 118.176 30.0365 117.981 30.219 118.269C32.3052 121.559 33.311 125.131 33.735 128.981C34.1095 132.378 33.9991 135.825 33.8127 139.231C33.6138 142.864 33.3816 146.497 33.1469 150.128L32.7864 155.696L31.8815 169.656C31.8167 170.655 31.5902 171.562 30.7307 172.026C30.6219 172.118 30.5085 172.199 30.3763 172.27C29.912 172.518 29.2961 172.393 29.0277 171.916L29.1354 171.987C29.2291 172.046 29.1238 171.963 28.8194 171.739L28.5611 171.405C28.3734 171.123 28.2535 170.846 28.2052 170.51C28.1303 169.988 28.2274 169.417 28.2615 168.893L28.8546 159.739C29.3158 152.623 29.8544 145.509 30.2604 138.388C30.4495 135.07 30.582 131.749 30.4923 128.425C30.403 125.119 30.2346 121.757 29.6928 118.49ZM47.7401 57.2131L47.8558 57.1935C51.9999 56.5054 56.5052 56.634 60.292 58.632C60.3232 58.6487 60.3094 58.7003 60.2738 58.6989L59.0554 58.6502C55.1967 58.4991 51.3496 58.4097 47.5555 59.3164L47.1671 59.4102C45.8007 59.7436 44.3738 60.152 43.2763 61.0543C42.2273 61.9175 41.7049 63.2485 41.2027 64.4742L41.1355 64.6363C40.6259 65.8467 39.981 66.9946 38.864 67.751C37.4173 68.7311 35.6774 68.6112 34.0186 68.7442C31.0978 68.9796 28.7099 71.0967 27.5218 73.6884C26.8024 75.257 26.4956 77.016 26.4348 78.7321C26.4036 79.6054 26.3992 80.5136 26.5155 81.3811C26.5526 81.6586 26.8956 82.6693 27.0704 82.6453C27.4589 82.5915 27.8141 82.7942 27.9352 83.1045C28.8949 82.1774 29.8822 81.2765 30.9012 80.4082C33.4414 78.2438 36.1775 76.2829 39.059 74.5973C41.2581 73.3105 43.5778 72.0362 45.9798 71.0728C45.7895 71.0684 45.6018 71.1062 45.4201 71.2006C45.3407 71.242 45.2616 71.1425 45.3244 71.0764C46.081 70.2801 46.9872 70.1668 47.9008 70.3789C48.0958 70.3172 48.2909 70.2568 48.4868 70.2002C48.5842 70.1718 48.6327 70.3063 48.5532 70.3578L48.3288 70.5017C49.3254 70.8352 50.304 71.492 51.0786 72.01C53.304 73.498 55.2628 75.3166 57.2485 77.1017L57.6096 77.425C59.3577 78.9864 61.1493 80.5034 63.1357 81.756C64.1747 82.4113 65.2667 83.018 66.4117 83.4685C67.394 83.8557 68.9932 84.0998 69.4538 85.1381C69.8621 85.635 69.6914 86.2693 69.2126 86.6035C68.4047 87.4928 66.7895 86.9181 65.8269 86.5483C64.6666 86.1015 63.5426 85.5646 62.4702 84.9354C60.3894 83.7133 58.4705 82.1934 56.6825 80.5768C54.8153 78.8883 53.0548 77.0944 51.2384 75.3529C50.4516 74.5987 49.6833 73.8264 48.8952 73.073L48.4995 72.6973C48.0973 72.3203 47.5243 71.7325 46.9117 71.3765C45.7576 72.0652 44.5856 72.7249 43.4419 73.4319C41.8454 74.4178 40.2958 75.4749 38.7702 76.5669C35.8332 78.6696 33.05 81.0243 30.4662 83.5484C25.7275 88.1765 21.6902 93.4622 18.1633 99.0588L17.8955 99.4853C15.8913 102.689 13.996 105.995 12.6522 109.534C11.1735 113.429 10.4543 117.526 10.0637 121.66C9.67599 125.765 9.54521 129.89 9.11189 133.991C8.66753 138.197 7.79197 142.31 6.79608 146.416L6.55857 147.39C5.65743 151.066 4.72737 154.743 4.26412 158.507C4.01688 160.517 3.86815 162.555 3.90172 164.581C3.9355 166.62 4.2557 168.614 4.51406 170.631C4.61301 171.403 3.85289 172.048 3.17277 172.151C2.39056 172.268 1.71858 171.768 1.4754 171.042C0.717461 168.776 0.579779 166.271 0.603538 163.893C0.627514 161.478 0.935572 159.078 1.36903 156.706C2.22157 152.038 3.53721 147.467 4.63779 142.855C5.60773 138.79 6.25865 134.718 6.60958 130.553C6.9738 126.233 7.19191 121.898 7.85641 117.608C8.51234 113.374 9.74646 109.329 11.6076 105.468C13.3022 101.953 15.4146 98.6439 17.6293 95.4362C20.3187 91.5419 23.2725 87.8358 26.5741 84.4588C26.2776 84.4464 25.973 84.3505 25.6934 84.1761C24.8378 83.6421 24.4393 82.5973 24.3168 81.6441C24.0301 79.4136 24.0993 77.0843 24.6728 74.9031C25.5979 71.3852 27.9989 68.2588 31.4786 66.991C32.3743 66.6641 33.3265 66.5449 34.2757 66.5217C35.1764 66.4991 36.1602 66.6168 37.0293 66.3313C38.4126 65.8765 39.0056 64.2461 39.525 63.011L39.549 62.9543C40.2149 61.3798 41.0143 60.0299 42.4569 59.0469C43.996 57.9985 45.9243 57.5211 47.7401 57.2131ZM87.1119 63.4396C88.3565 63.0073 89.9135 63.3997 91.1312 63.7767C92.4877 64.1974 93.7417 64.9726 94.8163 65.8932C95.9504 66.8631 96.8869 68.0619 97.5496 69.4002L97.6128 69.5296C98.2173 70.7713 98.906 72.4757 98.6009 73.8402C98.5922 73.8787 98.5827 73.9165 98.5711 73.9521C101.041 75.1691 103.323 76.6926 105.31 78.6245C107.623 80.8732 109.583 83.4321 111.24 86.1967C117.824 97.177 118.983 110.365 119.761 122.887L119.955 126.062C120.377 132.918 120.871 139.758 122.154 146.52L122.248 147.008C123.62 154.087 125.584 161.22 125.385 168.483C125.326 170.659 122.111 170.644 122.018 168.483C121.667 160.349 119.77 152.494 118.484 144.488C116.223 130.4 117.357 115.877 114.153 101.93C112.896 96.457 110.949 91.1481 108.167 86.2628C106.794 83.8492 105.223 81.5177 103.382 79.4354C101.798 77.6437 100.151 75.9196 98.3001 74.4135C97.7087 75.0063 96.5266 74.7041 96.2178 73.8402C96.0056 73.2466 96.0674 72.552 95.9315 71.9301C95.8051 71.3532 95.6307 70.7807 95.399 70.2372C94.9362 69.1539 94.2568 68.1135 93.4729 67.2366C92.6264 66.2884 91.6529 65.5016 90.5638 64.8513C89.4674 64.1967 88.2679 64.0012 87.1119 63.5224C87.0727 63.5065 87.0691 63.4541 87.1119 63.4396ZM91.9493 138.728C91.9515 138.67 92.0191 138.644 92.0605 138.682C92.4964 139.084 92.7609 139.661 93.082 140.155C93.4525 140.724 93.8412 141.283 94.2496 141.827C95.0669 142.916 95.9773 143.944 96.8942 144.95C97.7472 145.886 98.6568 146.782 99.5999 147.627C100.622 148.542 101.767 149.359 102.696 150.373C104.633 152.489 104.947 155.392 105.355 158.118L105.4 158.413C105.649 160.03 105.872 161.653 106.073 163.277C106.172 164.068 106.27 164.858 106.349 165.651L106.374 165.902C106.445 166.678 106.464 167.464 106.019 168.141C105.542 168.867 104.458 169.121 103.815 168.426C102.707 167.231 102.915 165.11 102.771 163.574C102.652 162.304 102.517 161.034 102.366 159.767L102.289 159.134C102.111 157.693 101.966 156.223 101.637 154.806C101.347 153.56 100.793 152.618 99.884 151.715C98.9692 150.805 98.0182 149.955 97.1732 148.975C96.2774 147.935 95.4694 146.821 94.7414 145.657C94.1188 144.662 93.6189 143.579 93.1619 142.498L93.0856 142.318C92.6439 141.263 91.9152 139.89 91.9493 138.728ZM107.931 93.4215C107.94 93.2747 108.157 93.2718 108.161 93.4215C108.188 94.6871 108.215 95.9521 108.241 97.2177C108.452 107.414 108.321 117.635 109.344 127.796C109.827 132.587 110.715 137.308 111.742 142.009C112.268 144.415 112.82 146.814 113.344 149.22C113.855 151.564 114.403 153.921 114.808 156.287C115.206 158.613 115.563 160.957 115.723 163.312L115.742 163.619C115.811 164.761 116.141 166.439 115.512 167.451C114.832 168.546 113.529 168.566 112.799 167.52C112.115 166.538 112.285 164.791 112.164 163.619C112.041 162.426 111.911 161.231 111.763 160.04C111.475 157.718 111.095 155.4 110.701 153.093C109.878 148.288 108.686 143.545 107.806 138.748C106.903 133.833 106.262 128.882 106.235 123.878C106.208 118.831 106.742 113.794 107.011 108.758C107.285 103.643 107.597 98.5328 107.931 93.4215ZM59.7812 61.7068C60.0551 60.7848 61.0207 60.2086 61.9631 60.4673C62.8262 60.7049 63.539 61.7533 63.2018 62.6506C62.8335 63.6292 62.1898 64.4633 61.647 65.3534C61.1457 66.1751 60.4141 66.8224 59.9033 67.6296L60.4664 68.237C60.7475 68.5393 61.0302 68.8408 61.3157 69.1365L62.2973 70.1537C63.0616 70.9442 63.831 71.7303 64.6215 72.4932C66.9472 74.7375 69.31 76.9077 71.9146 78.8302C72.5075 79.2668 73.1055 79.702 73.7194 80.1089L73.949 80.2607C74.3704 80.5368 74.8405 80.8086 75.3498 80.7621C76.5864 80.648 77.7045 79.3337 78.5546 78.5156L78.5989 78.4734C80.7059 76.4681 82.6567 74.2754 84.3619 71.9177C84.7405 71.3939 85.1074 70.8613 85.4648 70.3222C84.6402 69.3588 84.8371 67.4778 84.7913 66.3095C84.7593 65.4878 84.7572 64.666 84.7521 63.8436L84.7499 63.6779C84.7405 63.1454 84.7165 62.6353 85.0616 62.1972C85.0812 62.1718 85.1234 62.1725 85.1488 62.1856C85.6218 62.4341 85.7671 62.8489 85.9691 63.3147L85.9901 63.3626C86.2357 63.9213 86.4711 64.4859 86.7087 65.0475C86.9579 65.636 87.1868 66.2332 87.4178 66.8283C87.5253 67.1058 87.6285 67.3833 87.7288 67.6631C87.7905 67.8418 87.8537 68.0198 87.9184 68.1971L87.9344 68.2109C88.0201 68.2835 88.0928 68.3605 88.156 68.4405C88.4197 68.572 88.629 68.8132 88.7278 69.1663C88.9421 69.9357 88.4989 70.5635 88.1037 71.1738C86.498 73.6557 84.6678 76.0199 82.6327 78.1654C81.6228 79.2305 80.5592 80.2484 79.4526 81.214L79.2594 81.3818C78.2654 82.2362 77.1858 83.0456 75.8584 83.2461C74.3043 83.4794 73.0401 82.7063 71.85 81.8163L71.7316 81.7269C70.6039 80.8732 69.4989 79.989 68.4286 79.0641C66.2461 77.1794 64.1696 75.1553 62.3271 72.9349C60.5347 70.7749 58.7626 68.3598 57.6575 65.7609C57.5907 65.6026 57.7672 65.4369 57.906 65.5691C58.4458 66.0828 58.9653 66.6248 59.4783 67.1734C59.4928 66.3654 59.3438 65.551 59.4267 64.738C59.5277 63.7499 59.4986 62.6586 59.7812 61.7068Z" fill="black"/>
<path fill-rule="evenodd" clip-rule="evenodd" d="M99.0581 41.3996C98.0954 34.452 95.8939 27.7065 95.5779 20.6549C95.3897 17.6373 95.2015 14.6197 95.0141 11.6018C94.9429 9.71706 92.4951 9.08117 91.56 10.7509C89.4356 8.39357 85.6307 8.74071 82.7281 8.81228C65.6396 9.41808 49.4003 20.9763 43.5343 37.0919C43.3932 37.4763 43.4359 37.8853 43.5954 38.2508C40.8611 47.3726 50.531 53.2453 57.1259 57.3126C59.801 60.141 62.9455 62.4907 66.4962 64.1C70.5809 66.0218 75.1276 67.0941 79.641 67.1966C80.6313 67.2191 81.2263 66.4177 81.2982 65.5887C82.7383 65.2531 85.202 65.6403 85.9634 64.1647C94.6457 60.3917 100.303 50.8296 99.0581 41.3996Z" fill="white"/>
<path fill-rule="evenodd" clip-rule="evenodd" d="M94.9951 16.7613C94.9704 16.536 95.2959 16.5291 95.3627 16.7115C95.9127 18.2114 96.4838 19.7009 96.9197 21.2385C97.3397 22.7206 97.6427 24.2361 97.9493 25.7453C98.4571 28.2498 98.8945 30.7728 99.2563 33.3038C100.029 32.7 101.04 32.645 101.992 33.115C102.439 33.3353 102.609 33.918 102.502 34.3702C102.416 34.7328 102.311 35.0939 102.185 35.447C102.455 35.686 102.683 35.9803 102.85 36.3188C103.289 37.2096 103.147 38.1439 102.754 38.994C102.784 39.0441 102.814 39.0957 102.842 39.1495C103.411 40.2546 103.106 41.2449 102.69 42.3238C102.379 43.1303 102.553 44.0392 101.881 44.6488C101.647 45.3986 101.297 46.0968 100.788 46.7267C100.672 46.9388 100.499 47.1096 100.292 47.2353C100.241 48.4188 100.116 49.5995 99.8812 50.7692C98.9686 55.3109 96.0719 59.3578 92.4871 62.2124C88.9785 65.0053 84.8583 66.6742 80.4125 67.214C78.2539 67.4763 76.0917 67.3935 73.9505 67.0193L73.6839 66.9721C71.7084 66.6131 69.3173 66.0195 67.9514 64.5287C67.2328 63.7447 67.6528 62.0192 68.9228 62.1819C69.5956 62.2684 70.1812 62.3759 70.8155 62.6244C71.3095 62.8184 71.8043 63.0051 72.3114 63.1635C73.2836 63.4657 74.2884 63.7018 75.2968 63.8326C77.3988 64.1044 79.5835 64.0324 81.6607 63.6219C85.4388 62.8765 89.11 61.1567 91.977 58.5673C95.3097 55.5572 97.2634 51.6607 97.5511 47.1677C97.8708 42.1632 97.2932 37.0389 96.8137 32.0602C96.5645 29.4704 96.2477 26.886 95.867 24.3123C95.4942 21.7976 95.2705 19.2865 94.9951 16.7613ZM65.5 0.601792L65.6613 0.576943C72.0775 -0.399833 78.8286 -0.33052 84.859 2.31834C86.0149 2.82642 87.1462 3.43912 88.2113 4.15013C88.9749 4.07042 89.7421 4.00576 90.4956 3.99515C91.4444 3.98273 92.3701 4.47562 92.4863 5.43539C93.3749 5.5459 94.1937 5.87299 94.7168 6.52733C94.921 6.78206 95.0576 7.07689 95.1266 7.384C95.673 7.51311 96.2084 7.7111 96.717 7.97215C97.3339 8.29001 97.6899 9.17445 97.4719 9.82878C97.4218 9.97729 97.3644 10.122 97.3005 10.2635L97.251 10.3691L97.2801 10.4091C97.7727 11.2015 97.4305 12.241 96.6756 12.714C96.1089 13.0687 95.4768 13.3512 94.8258 13.4879C94.8796 13.749 94.929 14.0115 94.9682 14.2772C94.9842 14.3848 94.8462 14.4616 94.7844 14.3555C94.7844 14.3555 95.0176 15.0818 95.3693 15.882C95.5073 16.1966 95.0656 16.4761 94.8963 16.1583C94.448 15.3106 94.1705 14.4415 93.7636 13.5678C93.388 13.5432 93.0131 13.4572 92.652 13.2929C92.4158 13.1854 92.2364 13.0042 92.1078 12.7877C92.0998 12.7969 92.0954 12.8076 92.0875 12.8184C90.8763 14.377 88.5092 14.9236 86.6797 15.4165C84.7151 15.9465 82.704 16.2734 80.6857 16.5145C77.1612 16.9337 73.6098 17.012 70.0686 17.1749C69.8339 17.1855 69.6 17.1974 69.3653 17.2087C67.9274 18.471 66.0747 19.2553 64.1748 19.4938C63.2114 19.6145 62.0729 19.5838 60.9932 19.3378C60.6023 19.7371 60.1083 20.0328 59.5692 20.1847C59.4725 22.1961 58.3508 24.1005 56.6564 25.2106L56.6862 25.3301C57.1076 27.0478 57.1018 28.9252 55.592 30.119C55.3879 30.2805 55.1641 30.4191 54.9294 30.5339L54.981 30.6525C55.7606 32.476 56.0098 34.49 54.5436 36.0028C53.9493 36.616 52.906 36.4707 52.4599 35.7674L52.4381 35.7318C52.4134 35.6897 52.3872 35.6497 52.3611 35.6083C52.3218 35.6897 52.2608 35.7579 52.1707 35.7965C51.6134 36.0362 51.3911 35.8597 50.8825 35.6126C50.4132 35.3823 49.9172 35.2101 49.4108 35.0764C48.9978 34.9689 48.5864 34.8919 48.172 34.8476C45.5533 35.8488 43.8618 38.9199 44.2639 41.8021C44.4819 43.3715 45.3432 44.9256 46.8442 45.5766C47.5012 45.8621 48.2733 45.982 48.984 45.8854C49.9464 45.7546 50.6864 45.1486 51.6825 45.4952C52.0755 45.6318 52.3211 45.9406 52.3422 46.3627C52.3778 47.026 52.1431 47.5237 51.7471 47.8921C52.4453 48.4755 53.0084 49.2863 53.6151 49.933C54.3736 50.7423 55.1423 51.5517 55.9619 52.2979C56.7356 53.0056 57.5588 53.6631 58.4299 54.2465L58.5215 54.3068C59.6142 55.0188 60.9903 55.6502 61.0426 57.1382C61.0593 57.5865 60.7876 57.9977 60.4192 58.2266C59.0424 59.0803 57.5443 57.9592 56.4654 57.1382C56.0309 56.8076 55.6087 56.4654 55.2019 56.1108C54.9301 56.1319 54.6344 56.0876 54.3257 55.951C54.1273 55.8653 53.934 55.7635 53.7437 55.656C53.1254 55.8115 52.542 55.6749 52.0617 55.3509C51.3693 55.5209 50.6355 55.5412 50.0124 55.4046C49.4431 55.2782 48.9349 55.0094 48.5158 54.649C47.6409 54.928 46.6693 54.8764 45.8066 54.346C45.2893 54.0285 44.8856 53.5752 44.6661 53.0455C44.5543 52.8704 44.4828 52.6663 44.4775 52.4418L44.4773 52.356C43.7252 52.3735 42.9715 52.1148 42.3897 51.5198C41.8556 50.9727 41.5948 50.2912 41.5655 49.598C40.8087 49.3837 40.1165 48.9427 39.59 48.2626C38.7181 47.135 38.6016 45.7422 39.0498 44.4984C39.0205 44.433 38.9944 44.3654 38.9714 44.2978C38.2761 43.3163 37.8171 42.1327 37.8539 40.9455C37.8585 40.761 37.8831 40.5801 37.9199 40.4006C37.2353 40.0366 36.7318 39.3972 36.6782 38.585C36.6367 37.9478 36.8654 37.3244 37.2783 36.8529C37.0773 36.3726 36.9882 35.8502 37.0496 35.3286C37.1126 34.7924 37.3013 34.3271 37.5778 33.9387C37.5715 33.7975 37.5792 33.6545 37.6022 33.5086C37.5746 33.3659 37.5515 33.2184 37.5394 33.0681C37.4088 31.4218 38.5447 29.9814 39.9277 29.2213C40.2914 29.0217 40.6844 28.8589 41.0774 28.7207C41.3629 28.6194 41.7926 28.5856 42.0444 28.3998C42.0336 28.3921 42.138 28.2572 42.1564 28.1848C42.1764 28.0957 42.1979 28.0083 42.2088 27.9177C42.2501 27.5368 42.2193 27.1453 42.2117 26.7629C42.1779 25.0277 42.2316 23.2848 42.4143 21.5588C42.7535 18.3587 43.5903 15.2277 45.2202 12.4314C46.5879 10.0882 48.4606 8.10881 50.6079 6.46724C54.8851 3.19914 60.2231 1.42221 65.5 0.601792ZM45.6775 40.3984C45.1207 39.0601 47.742 39.047 48.4351 39.1103L48.4555 39.1124C50.0155 39.2679 52.4541 40.0184 53.0927 41.5929C53.3564 42.2446 52.5747 42.9515 51.9491 42.7372C51.3366 42.5272 50.993 42.0768 50.5011 41.6823C50.3722 41.5791 50.2377 41.4825 50.1008 41.3895C50.1729 41.619 50.2884 41.8312 50.4488 41.9896L50.4866 42.0252C51.2414 42.7038 49.8912 43.7696 49.3901 42.8716C49.1233 42.3935 49.0165 41.869 49.0997 41.3262C49.1244 41.1657 49.1674 41.0196 49.2298 40.8794C49.1801 40.8547 49.1312 40.8278 49.0808 40.8038L48.991 40.7617C48.3901 40.4893 45.8263 39.4183 45.8471 40.3759C45.8494 40.482 45.712 40.482 45.6775 40.3984Z" fill="black"/>
<path fill-rule="evenodd" clip-rule="evenodd" d="M81.7376 55.1155C80.7059 54.6948 79.7854 53.9922 79.1119 53.0949C78.8779 52.7825 78.8176 52.4534 78.8663 52.1519C78.9215 51.8133 79.122 51.506 79.3952 51.3004C79.6691 51.094 80.0121 50.9916 80.3434 51.0439C80.6318 51.0889 80.9181 51.2466 81.1455 51.5735L81.1927 51.6389C81.5931 52.1809 82.114 52.6249 82.7083 52.9118C83.2808 53.1879 83.9217 53.3165 84.5843 53.2417C85.847 53.0993 86.7167 52.4163 87.6416 51.4885C87.7564 51.3716 87.8712 51.251 87.986 51.1282C88.0586 51.017 88.1604 50.9451 88.2722 50.908C88.3965 50.8659 88.5374 50.8688 88.6668 50.9138C88.791 50.9567 88.9022 51.0395 88.977 51.1492C89.0475 51.2531 89.0882 51.3817 89.0751 51.5299C88.9901 52.4904 88.488 53.3485 87.7746 54.022C86.9819 54.7704 85.9313 55.2877 84.9425 55.4693C83.8534 55.6691 82.7432 55.526 81.7376 55.1155ZM85.4569 40.288C86.6157 40.9928 88.3819 42.6362 87.1352 44.3836C85.6668 45.9246 83.554 44.1584 82.5129 43.3591C81.5473 42.7401 80.4618 44.3327 81.3577 45.0556C88.8825 50.629 91.937 40.4726 86.0432 39.4597C85.3936 39.3479 85.1532 40.07 85.4569 40.288ZM71.9721 33.8049C72.0999 32.2146 74.5208 31.8535 74.762 33.4272C74.9771 34.8367 74.7235 36.1314 74.0885 37.4007C73.4826 38.6133 71.9583 38.0481 71.8427 36.9437C71.688 35.4637 71.8921 34.7938 71.9721 33.8049ZM90.401 33.1008C90.7389 32.6586 91.2264 32.3567 91.8098 32.5274C93.6342 33.0606 93.0965 35.6519 92.4557 36.9125C92.1077 37.5976 90.9823 37.7712 90.4737 37.1682C89.6447 36.1852 89.248 34.221 90.3015 33.2525C90.3306 33.2024 90.3625 33.1518 90.401 33.1008ZM74.0631 26.8464L74.3515 26.7959C75.243 26.6416 76.351 26.4934 76.9816 27.2104C77.3166 27.5907 77.4314 28.2973 76.9816 28.6612C76.1911 29.3015 75.3164 29.0534 74.3689 29.1076C73.5879 29.1524 72.8374 29.2818 72.0854 29.4969C70.4347 29.9688 69.0898 30.8302 67.6803 31.7762C67.4958 31.9002 67.3069 31.6636 67.3948 31.4905C68.2085 29.8961 69.7851 28.5865 71.3647 27.7881C72.2082 27.362 73.1302 27.0085 74.0631 26.8464ZM88.738 26.1321L88.9588 26.1773C91.3594 26.6792 94.4777 27.6818 95.6141 30.0404C95.6576 30.3739 95.6119 30.4453 95.5748 30.4921L95.5625 30.5076C95.5312 30.5475 95.5072 30.6024 95.3627 30.6478C95.3227 30.6382 95.282 30.6281 95.2413 30.6174C94.7197 30.4808 94.3077 30.2926 93.9088 30.0974L93.4758 29.8842C92.9738 29.6379 92.4674 29.4006 91.9304 29.2255C90.7854 28.8517 89.6069 28.5884 88.411 28.4478C88.1516 28.4174 87.9017 28.3298 87.7048 28.1797C87.5181 28.0373 87.375 27.8401 87.3096 27.578C87.2253 27.2389 87.25 26.982 87.4316 26.676C87.5682 26.4462 87.7644 26.2869 87.9889 26.1954C88.2178 26.1022 88.4786 26.0802 88.738 26.1321Z" fill="black"/>
<path fill-rule="evenodd" clip-rule="evenodd" d="M85.8776 62.6607C85.8776 62.6607 79.0639 63.6626 76.0139 62.2465C72.9733 60.8356 70.0155 59.4704 67.2575 57.601C64.4312 55.6858 62.0336 53.4117 60.3226 50.5011C58.7307 47.7925 57.4076 44.9183 56.0751 42.0666C55.9974 41.9002 55.2323 40.2429 54.9621 39.6878C54.5465 38.8262 53.3302 39.0964 53.3302 40.434C53.3302 41.7709 53.2706 51.8983 55.6065 55.8819C57.7142 59.4798 61.286 61.9944 64.8352 64.1886C68.7614 66.6146 73.9774 69.2374 78.6622 69.9305C82.9016 70.5576 87.7397 68.7971 90.8101 65.8967C94.0193 62.8634 94.9282 58.7417 96.584 54.795C96.9546 53.913 95.6431 53.3804 95.2581 54.2487C94.5337 55.882 85.8776 62.6607 85.8776 62.6607Z" fill="black"/>
<path fill-rule="evenodd" clip-rule="evenodd" d="M98.3922 37.995C97.9585 39.1764 97.2973 40.4072 96.4901 41.4018C93.2214 44.1707 90.0456 42.6377 88.4327 38.8843C87.8202 36.2324 89.4469 33.3757 91.1711 31.4248C93.6602 28.9285 97.7238 30.2386 98.8681 33.2062C98.9379 33.5907 98.98 33.9743 99.0004 34.3567C98.9764 35.5989 98.8267 36.6611 98.3922 37.841V37.995ZM66.9747 35.6112C71.2803 30.4878 79.3355 30.2138 79.1306 38.0996C78.205 48.0817 62.6299 45.6318 66.9747 35.6112ZM99.7465 31.3372C99.5954 31.0815 99.4283 30.8341 99.2452 30.5975C99.1776 30.5572 99.1391 30.2004 98.8907 30.174C95.5711 26.5103 89.739 28.589 87.632 32.2396C87.2469 32.7012 86.9331 33.2416 86.702 33.8126C84.6256 33.4315 82.2054 33.5056 80.2742 34.2901C78.3598 29.2885 72.5626 28.8418 68.7424 30.9789C66.3666 32.1479 64.8263 34.5962 62.5151 35.9411C57.0834 36.3319 51.2529 35.1142 45.9192 36.478C41.7124 37.3527 45.229 39.4837 45.9345 38.0611C50.9637 36.5753 56.9214 37.8308 62.1431 37.4959C62.6859 38.415 63.727 39.1669 64.7645 39.135C65.8856 49.0728 80.373 47.4249 80.8729 38.5908C81.4396 37.6935 82.1444 36.8354 83.1536 36.2775C83.5401 36.1968 83.9135 36.0929 84.2543 35.9323C84.837 35.8502 85.7357 36.0973 86.2719 36.5826C88.1094 47.6102 98.6938 46.3264 100.585 36.6654C100.623 36.6269 100.728 36.4831 100.809 36.252C101.456 35.3954 103.041 35.0772 102.788 33.6314C102.562 32.1853 100.737 32.2024 99.7465 31.3372Z" fill="black"/>
</svg>
