<svg width="100" height="100" viewBox="0 0 100 100" fill="none" xmlns="http://www.w3.org/2000/svg">
<g clip-path="url(#clip0_620_633)">
<path d="M87.5 0H12.5C9.18479 0 6.00537 1.31696 3.66117 3.66117C1.31696 6.00537 0 9.18479 0 12.5L0 87.5C0 90.8152 1.31696 93.9946 3.66117 96.3388C6.00537 98.683 9.18479 100 12.5 100H87.5C90.8152 100 93.9946 98.683 96.3388 96.3388C98.683 93.9946 100 90.8152 100 87.5V12.5C100 9.18479 98.683 6.00537 96.3388 3.66117C93.9946 1.31696 90.8152 0 87.5 0V0ZM6.25 24.1063C6.25 21.15 9.05 18.75 12.5 18.75H87.5C90.95 18.75 93.75 21.15 93.75 24.1063V88.3937C93.75 91.35 90.95 93.75 87.5 93.75H12.5C9.05 93.75 6.25 91.35 6.25 88.3937V24.1063Z" fill="black"/>
<path d="M43.75 62.5C45.4076 62.5 46.9973 61.8415 48.1694 60.6694C49.3415 59.4973 50 57.9076 50 56.25C50 54.5924 49.3415 53.0027 48.1694 51.8306C46.9973 50.6585 45.4076 50 43.75 50H6.25V62.5H43.75ZM56.25 43.75H93.75V31.25H56.25C54.5924 31.25 53.0027 31.9085 51.8306 33.0806C50.6585 34.2527 50 35.8424 50 37.5C50 39.1576 50.6585 40.7473 51.8306 41.9194C53.0027 43.0915 54.5924 43.75 56.25 43.75V43.75Z" fill="black"/>
</g>
<defs>
<clipPath id="clip0_620_633">
<rect width="100" height="100" fill="white"/>
</clipPath>
</defs>
</svg>
