<svg width="100" height="100" viewBox="0 0 100 100" fill="none" xmlns="http://www.w3.org/2000/svg">
<path d="M100 50C100 63.2608 94.7322 75.9785 85.3553 85.3553C75.9785 94.7322 63.2608 100 50 100C36.7392 100 24.0215 94.7322 14.6447 85.3553C5.26784 75.9785 0 63.2608 0 50C0 36.7392 5.26784 24.0215 14.6447 14.6447C24.0215 5.26784 36.7392 0 50 0C63.2608 0 75.9785 5.26784 85.3553 14.6447C94.7322 24.0215 100 36.7392 100 50V50ZM50 21.875C50 21.0462 49.6708 20.2513 49.0847 19.6653C48.4987 19.0792 47.7038 18.75 46.875 18.75C46.0462 18.75 45.2513 19.0792 44.6653 19.6653C44.0792 20.2513 43.75 21.0462 43.75 21.875V56.25C43.7502 56.8008 43.8959 57.3418 44.1725 57.8182C44.4491 58.2945 44.8467 58.6893 45.325 58.9625L67.2 71.4625C67.9179 71.8505 68.759 71.9423 69.5437 71.7183C70.3283 71.4943 70.9942 70.9722 71.3991 70.2637C71.8039 69.5553 71.9156 68.7165 71.7102 67.9268C71.5048 67.1371 70.9987 66.459 70.3 66.0375L50 54.4375V21.875Z" fill="black"/>
</svg>
