<svg width="100" height="100" viewBox="0 0 100 100" fill="none" xmlns="http://www.w3.org/2000/svg">
<path d="M3.1249 18.75L3.3749 24.1875C1.72593 26.5847 0.969568 29.4841 1.2374 32.3813L5.21865 76.1312C5.50087 79.237 6.9338 82.125 9.23613 84.2285C11.5385 86.3319 14.5439 87.4988 17.6624 87.5H56.2499V81.25H17.6624C16.1032 81.2485 14.6008 80.6643 13.4503 79.612C12.2997 78.5597 11.584 77.1154 11.4436 75.5625L7.4624 31.8125C7.38426 30.9478 7.48713 30.0763 7.76446 29.2536C8.04179 28.4309 8.48749 27.6749 9.07315 27.034C9.65881 26.3931 10.3716 25.8812 11.166 25.531C11.9605 25.1808 12.8192 24.9999 13.6874 25H86.3124C87.1806 24.9999 88.0393 25.1808 88.8338 25.531C89.6282 25.8812 90.341 26.3931 90.9266 27.034C91.5123 27.6749 91.958 28.4309 92.2353 29.2536C92.5127 30.0763 92.6155 30.9478 92.5374 31.8125L90.8749 50H97.1561L98.7561 32.3813C98.9133 30.6519 98.7084 28.9088 98.1545 27.263C97.6007 25.6172 96.71 24.1049 95.5392 22.8224C94.3685 21.54 92.9434 20.5155 91.3548 19.8143C89.7662 19.1132 88.0489 18.7507 86.3124 18.75H61.4249C58.11 18.7493 54.9311 17.4319 52.5874 15.0875L47.4124 9.9125C45.0687 7.56813 41.8898 6.25071 38.5749 6.25H15.6249C12.3097 6.25 9.13027 7.56696 6.78606 9.91117C4.44186 12.2554 3.1249 15.4348 3.1249 18.75V18.75ZM38.5749 12.5C40.2324 12.5004 41.8218 13.1591 42.9936 14.3312L47.4124 18.75H13.6874C12.1874 18.75 10.7499 19.0125 9.41865 19.5L9.3749 18.625C9.40762 16.9892 10.0805 15.4314 11.2491 14.2862C12.4177 13.141 13.9887 12.4997 15.6249 12.5H38.5749V12.5Z" fill="black"/>
<path d="M84.375 62.5C85.2038 62.5 85.9987 62.8292 86.5847 63.4153C87.1708 64.0013 87.5 64.7962 87.5 65.625V75H96.875C97.7038 75 98.4987 75.3292 99.0847 75.9153C99.6708 76.5013 100 77.2962 100 78.125C100 78.9538 99.6708 79.7487 99.0847 80.3347C98.4987 80.9208 97.7038 81.25 96.875 81.25H87.5V90.625C87.5 91.4538 87.1708 92.2487 86.5847 92.8347C85.9987 93.4208 85.2038 93.75 84.375 93.75C83.5462 93.75 82.7513 93.4208 82.1653 92.8347C81.5792 92.2487 81.25 91.4538 81.25 90.625V81.25H71.875C71.0462 81.25 70.2513 80.9208 69.6653 80.3347C69.0792 79.7487 68.75 78.9538 68.75 78.125C68.75 77.2962 69.0792 76.5013 69.6653 75.9153C70.2513 75.3292 71.0462 75 71.875 75H81.25V65.625C81.25 64.7962 81.5792 64.0013 82.1653 63.4153C82.7513 62.8292 83.5462 62.5 84.375 62.5Z" fill="black"/>
</svg>
