<svg width="100" height="100" viewBox="0 0 100 100" fill="none" xmlns="http://www.w3.org/2000/svg">
<path d="M50 18.75C41.712 18.75 33.7634 22.0424 27.9029 27.9029C22.0424 33.7634 18.75 41.712 18.75 50V56.25H25C26.6576 56.25 28.2473 56.9085 29.4194 58.0806C30.5915 59.2527 31.25 60.8424 31.25 62.5V81.25C31.25 82.9076 30.5915 84.4973 29.4194 85.6694C28.2473 86.8415 26.6576 87.5 25 87.5H18.75C17.0924 87.5 15.5027 86.8415 14.3306 85.6694C13.1585 84.4973 12.5 82.9076 12.5 81.25V50C12.5 45.0754 13.47 40.1991 15.3545 35.6494C17.2391 31.0997 20.0013 26.9657 23.4835 23.4835C26.9657 20.0013 31.0997 17.2391 35.6494 15.3545C40.1991 13.47 45.0754 12.5 50 12.5C54.9246 12.5 59.8009 13.47 64.3506 15.3545C68.9003 17.2391 73.0343 20.0013 76.5165 23.4835C79.9987 26.9657 82.7609 31.0997 84.6455 35.6494C86.53 40.1991 87.5 45.0754 87.5 50V81.25C87.5 82.9076 86.8415 84.4973 85.6694 85.6694C84.4973 86.8415 82.9076 87.5 81.25 87.5H75C73.3424 87.5 71.7527 86.8415 70.5806 85.6694C69.4085 84.4973 68.75 82.9076 68.75 81.25V62.5C68.75 60.8424 69.4085 59.2527 70.5806 58.0806C71.7527 56.9085 73.3424 56.25 75 56.25H81.25V50C81.25 41.712 77.9576 33.7634 72.0971 27.9029C66.2366 22.0424 58.288 18.75 50 18.75V18.75Z" fill="black"/>
</svg>
