<svg width="100" height="100" viewBox="0 0 100 100" fill="none" xmlns="http://www.w3.org/2000/svg">
<g clip-path="url(#clip0_620_627)">
<path d="M75.9123 0.912715C76.2026 0.621695 76.5474 0.390802 76.9271 0.233262C77.3067 0.0757214 77.7137 -0.00537109 78.1248 -0.00537109C78.5358 -0.00537109 78.9428 0.0757214 79.3225 0.233262C79.7021 0.390802 80.047 0.621695 80.3373 0.912715L99.0873 19.6627C99.3783 19.953 99.6092 20.2978 99.7667 20.6775C99.9243 21.0572 100.005 21.4642 100.005 21.8752C100.005 22.2863 99.9243 22.6933 99.7667 23.0729C99.6092 23.4526 99.3783 23.7974 99.0873 24.0877L36.5873 86.5877C36.2874 86.8855 35.9302 87.1194 35.5373 87.2752L4.28726 99.7752C3.71937 100.003 3.09724 100.058 2.49801 99.9353C1.89878 99.8123 1.34881 99.5162 0.916269 99.0837C0.483729 98.6512 0.187644 98.1012 0.0647226 97.502C-0.058199 96.9027 -0.00255215 96.2806 0.224765 95.7127L12.7248 64.4627C12.8806 64.0698 13.1145 63.7126 13.4123 63.4127L75.9123 0.912715V0.912715ZM70.0435 15.6252L84.3748 29.9565L92.456 21.8752L78.1248 7.54397L70.0435 15.6252ZM79.956 34.3752L65.6248 20.044L24.9998 60.669V62.5002H28.1248C28.9536 62.5002 29.7484 62.8295 30.3345 63.4155C30.9205 64.0016 31.2498 64.7964 31.2498 65.6252V68.7502H34.3748C35.2036 68.7502 35.9984 69.0795 36.5845 69.6655C37.1705 70.2516 37.4998 71.0464 37.4998 71.8752V75.0002H39.331L79.956 34.3752V34.3752ZM18.9498 66.719L18.2873 67.3815L8.73727 91.2627L32.6185 81.7127L33.281 81.0502C32.6849 80.8275 32.171 80.4281 31.808 79.9054C31.445 79.3827 31.2502 78.7616 31.2498 78.1252V75.0002H28.1248C27.296 75.0002 26.5011 74.671 25.9151 74.0849C25.329 73.4989 24.9998 72.704 24.9998 71.8752V68.7502H21.8748C21.2384 68.7497 20.6173 68.555 20.0946 68.192C19.5719 67.829 19.1725 67.3151 18.9498 66.719V66.719Z" fill="black"/>
</g>
<defs>
<clipPath id="clip0_620_627">
<rect width="100" height="100" fill="white"/>
</clipPath>
</defs>
</svg>
