<svg width="100" height="100" viewBox="0 0 100 100" fill="none" xmlns="http://www.w3.org/2000/svg">
<g clip-path="url(#clip0_620_621)">
<path d="M19.2 22.2812C19.0736 20.9798 19.2208 19.6663 19.6323 18.4251C20.0437 17.184 20.7102 16.0426 21.589 15.0744C22.4678 14.1061 23.5394 13.3324 24.735 12.8029C25.9306 12.2735 27.2237 12 28.5313 12H43.5C44.3288 12 45.1237 12.3292 45.7097 12.9153C46.2958 13.5013 46.625 14.2962 46.625 15.125V17.5125C46.625 21.8625 43.5187 24.9 41.175 26.6937C40.8929 26.8942 40.6494 27.1441 40.4563 27.4312C40.4249 27.4801 40.3997 27.5325 40.3812 27.5875L40.375 27.625V27.6437L40.3937 27.7063C40.4187 27.7688 40.4813 27.8812 40.6188 28.0375C41.097 28.5476 41.6702 28.9594 42.3063 29.25C44.0625 30.125 46.6875 30.75 49.75 30.75C52.825 30.75 55.45 30.125 57.1875 29.25C57.8257 28.9601 58.4011 28.5482 58.8813 28.0375C58.9731 27.9372 59.0489 27.8233 59.1062 27.7L59.125 27.6375V27.5875C59.1066 27.5325 59.0814 27.48 59.05 27.4312C58.8569 27.1441 58.6134 26.8942 58.3313 26.6937C55.9875 24.9 52.8813 21.8625 52.8813 17.5125V15.125C52.8813 14.2973 53.2096 13.5034 53.7943 12.9175C54.379 12.3316 55.1723 12.0017 56 12H70.9688C72.2763 12 73.5694 12.2735 74.765 12.8029C75.9606 13.3324 77.0322 14.1061 77.911 15.0744C78.7898 16.0426 79.4563 17.184 79.8677 18.4251C80.2792 19.6663 80.4264 20.9798 80.3 22.2812L78.7813 40.125H80.2625C81.4812 40.125 82.8875 39.2062 84.4813 37.125C85.7938 35.4125 87.7813 33.875 90.375 33.875C93.925 33.875 96.2938 36.6687 97.5875 39.2625C98.9813 42.0437 99.75 45.6688 99.75 49.5C99.75 53.3312 98.9813 56.9562 97.5875 59.7375C96.2938 62.3312 93.925 65.125 90.375 65.125C87.7813 65.125 85.7938 63.5875 84.4813 61.875C82.8875 59.7937 81.4812 58.875 80.2625 58.875H78.7813L80.3 76.7187C80.4264 78.0202 80.2792 79.3337 79.8677 80.5749C79.4563 81.816 78.7898 82.9574 77.911 83.9256C77.0322 84.8939 75.9606 85.6676 74.765 86.1971C73.5694 86.7265 72.2763 87 70.9688 87H56C55.1712 87 54.3763 86.6708 53.7903 86.0847C53.2042 85.4987 52.875 84.7038 52.875 83.875V81.4875C52.875 77.1375 55.9812 74.1 58.325 72.3063C58.6071 72.1058 58.8506 71.8559 59.0438 71.5688C59.0751 71.5199 59.1003 71.4675 59.1187 71.4125L59.125 71.375V71.3562L59.1062 71.2938C59.0483 71.1727 58.9725 71.061 58.8813 70.9625C58.4031 70.4523 57.8298 70.0404 57.1937 69.75C55.4375 68.875 52.8125 68.25 49.75 68.25C46.6813 68.25 44.05 68.875 42.3125 69.75C41.6742 70.0397 41.0988 70.4516 40.6188 70.9625C40.527 71.0629 40.4512 71.1767 40.3937 71.3L40.375 71.3625V71.375L40.3812 71.4125C40.3997 71.4675 40.4249 71.5199 40.4563 71.5688C40.5563 71.7375 40.7687 71.9938 41.175 72.3063C43.5187 74.1 46.625 77.1375 46.625 81.4875V83.875C46.625 84.7038 46.2958 85.4987 45.7097 86.0847C45.1237 86.6708 44.3288 87 43.5 87H28.5313C27.2237 87 25.9306 86.7265 24.735 86.1971C23.5394 85.6676 22.4678 84.8939 21.589 83.9256C20.7102 82.9574 20.0437 81.816 19.6323 80.5749C19.2208 79.3337 19.0736 78.0202 19.2 76.7187L20.725 58.875H19.2375C18.0188 58.875 16.6125 59.7937 15.0188 61.875C13.7063 63.5875 11.7187 65.125 9.125 65.125C5.575 65.125 3.20625 62.3312 1.9125 59.7375C0.51875 56.9562 -0.25 53.3312 -0.25 49.5C-0.25 45.6688 0.51875 42.0437 1.9125 39.2625C3.20625 36.6687 5.575 33.875 9.125 33.875C11.7187 33.875 13.7063 35.4125 15.0188 37.125C16.6125 39.2062 18.0188 40.125 19.2375 40.125H20.725L19.2 22.2812Z" fill="black"/>
</g>
<defs>
<clipPath id="clip0_620_621">
<rect width="100" height="100" fill="white"/>
</clipPath>
</defs>
</svg>
