<svg width="100" height="100" viewBox="0 0 100 100" fill="none" xmlns="http://www.w3.org/2000/svg">
<path fill-rule="evenodd" clip-rule="evenodd" d="M49.375 12C50.2038 12 50.9987 12.3292 51.5847 12.9153C52.1708 13.5013 52.5 14.2962 52.5 15.125V83.875C52.5 84.7038 52.1708 85.4987 51.5847 86.0847C50.9987 86.6708 50.2038 87 49.375 87C48.5462 87 47.7513 86.6708 47.1653 86.0847C46.5792 85.4987 46.25 84.7038 46.25 83.875V15.125C46.25 14.2962 46.5792 13.5013 47.1653 12.9153C47.7513 12.3292 48.5462 12 49.375 12V12ZM36.875 24.5C37.7038 24.5 38.4987 24.8292 39.0847 25.4153C39.6708 26.0013 40 26.7962 40 27.625V71.375C40 72.2038 39.6708 72.9987 39.0847 73.5847C38.4987 74.1708 37.7038 74.5 36.875 74.5C36.0462 74.5 35.2513 74.1708 34.6653 73.5847C34.0792 72.9987 33.75 72.2038 33.75 71.375V27.625C33.75 26.7962 34.0792 26.0013 34.6653 25.4153C35.2513 24.8292 36.0462 24.5 36.875 24.5V24.5ZM61.875 24.5C62.7038 24.5 63.4987 24.8292 64.0847 25.4153C64.6708 26.0013 65 26.7962 65 27.625V71.375C65 72.2038 64.6708 72.9987 64.0847 73.5847C63.4987 74.1708 62.7038 74.5 61.875 74.5C61.0462 74.5 60.2513 74.1708 59.6653 73.5847C59.0792 72.9987 58.75 72.2038 58.75 71.375V27.625C58.75 26.7962 59.0792 26.0013 59.6653 25.4153C60.2513 24.8292 61.0462 24.5 61.875 24.5ZM24.375 33.875C25.2038 33.875 25.9987 34.2042 26.5847 34.7903C27.1708 35.3763 27.5 36.1712 27.5 37V62C27.5 62.8288 27.1708 63.6237 26.5847 64.2097C25.9987 64.7958 25.2038 65.125 24.375 65.125C23.5462 65.125 22.7513 64.7958 22.1653 64.2097C21.5792 63.6237 21.25 62.8288 21.25 62V37C21.25 36.1712 21.5792 35.3763 22.1653 34.7903C22.7513 34.2042 23.5462 33.875 24.375 33.875V33.875ZM74.375 33.875C75.2038 33.875 75.9987 34.2042 76.5847 34.7903C77.1708 35.3763 77.5 36.1712 77.5 37V62C77.5 62.8288 77.1708 63.6237 76.5847 64.2097C75.9987 64.7958 75.2038 65.125 74.375 65.125C73.5462 65.125 72.7513 64.7958 72.1653 64.2097C71.5792 63.6237 71.25 62.8288 71.25 62V37C71.25 36.1712 71.5792 35.3763 72.1653 34.7903C72.7513 34.2042 73.5462 33.875 74.375 33.875ZM11.875 40.125C12.7038 40.125 13.4987 40.4542 14.0847 41.0403C14.6708 41.6263 15 42.4212 15 43.25V55.75C15 56.5788 14.6708 57.3737 14.0847 57.9597C13.4987 58.5458 12.7038 58.875 11.875 58.875C11.0462 58.875 10.2513 58.5458 9.66529 57.9597C9.07924 57.3737 8.75 56.5788 8.75 55.75V43.25C8.75 42.4212 9.07924 41.6263 9.66529 41.0403C10.2513 40.4542 11.0462 40.125 11.875 40.125ZM86.875 40.125C87.7038 40.125 88.4987 40.4542 89.0847 41.0403C89.6708 41.6263 90 42.4212 90 43.25V55.75C90 56.5788 89.6708 57.3737 89.0847 57.9597C88.4987 58.5458 87.7038 58.875 86.875 58.875C86.0462 58.875 85.2513 58.5458 84.6653 57.9597C84.0792 57.3737 83.75 56.5788 83.75 55.75V43.25C83.75 42.4212 84.0792 41.6263 84.6653 41.0403C85.2513 40.4542 86.0462 40.125 86.875 40.125Z" fill="black"/>
</svg>
