<svg width="100" height="100" viewBox="0 0 100 100" fill="none" xmlns="http://www.w3.org/2000/svg">
<g clip-path="url(#clip0_213_126)">
<path d="M47.8563 39.0437C48.5438 36.9812 51.4563 36.9812 52.1438 39.0437L56.175 51.15C57.0624 53.8112 58.5574 56.2292 60.5415 58.2123C62.5257 60.1954 64.9445 61.6891 67.6063 62.575L79.7063 66.6062C81.7688 67.2937 81.7688 70.2062 79.7063 70.8937L67.6 74.925C64.9388 75.8123 62.5208 77.3073 60.5377 79.2915C58.5546 81.2757 57.0609 83.6945 56.175 86.3562L52.1438 98.4562C51.9956 98.9079 51.7085 99.3011 51.3235 99.58C50.9386 99.8588 50.4754 100.009 50 100.009C49.5247 100.009 49.0615 99.8588 48.6765 99.58C48.2916 99.3011 48.0045 98.9079 47.8563 98.4562L43.825 86.35C42.9383 83.6894 41.4443 81.2718 39.4612 79.2888C37.4782 77.3057 35.0606 75.8117 32.4 74.925L20.2938 70.8937C19.8422 70.7455 19.4489 70.4584 19.17 70.0735C18.8912 69.6885 18.7411 69.2253 18.7411 68.75C18.7411 68.2746 18.8912 67.8115 19.17 67.4265C19.4489 67.0415 19.8422 66.7545 20.2938 66.6062L32.4 62.575C35.0606 61.6883 37.4782 60.1942 39.4612 58.2112C41.4443 56.2281 42.9383 53.8106 43.825 51.15L47.8563 39.0437V39.0437ZM23.7125 7.17498C23.8022 6.90432 23.9748 6.66879 24.2059 6.50185C24.4371 6.33491 24.7149 6.24506 25 6.24506C25.2851 6.24506 25.563 6.33491 25.7941 6.50185C26.0253 6.66879 26.1979 6.90432 26.2875 7.17498L28.7063 14.4375C29.7875 17.675 32.325 20.2125 35.5625 21.2937L42.825 23.7125C43.0957 23.8021 43.3312 23.9747 43.4982 24.2059C43.6651 24.437 43.755 24.7149 43.755 25C43.755 25.2851 43.6651 25.563 43.4982 25.7941C43.3312 26.0252 43.0957 26.1979 42.825 26.2875L35.5625 28.7062C33.9658 29.2382 32.5149 30.1348 31.3249 31.3248C30.1348 32.5149 29.2383 33.9658 28.7063 35.5625L26.2875 42.825C26.1979 43.0956 26.0253 43.3312 25.7941 43.4981C25.563 43.665 25.2851 43.7549 25 43.7549C24.7149 43.7549 24.4371 43.665 24.2059 43.4981C23.9748 43.3312 23.8022 43.0956 23.7125 42.825L21.2938 35.5625C20.7618 33.9658 19.8653 32.5149 18.6752 31.3248C17.4851 30.1348 16.0343 29.2382 14.4375 28.7062L7.17504 26.2875C6.90438 26.1979 6.66884 26.0252 6.50191 25.7941C6.33497 25.563 6.24512 25.2851 6.24512 25C6.24512 24.7149 6.33497 24.437 6.50191 24.2059C6.66884 23.9747 6.90438 23.8021 7.17504 23.7125L14.4375 21.2937C16.0343 20.7618 17.4851 19.8652 18.6752 18.6751C19.8653 17.4851 20.7618 16.0342 21.2938 14.4375L23.7125 7.17498V7.17498ZM67.8938 0.61873C67.9555 0.440769 68.0711 0.286454 68.2246 0.17724C68.378 0.0680253 68.5617 0.00933838 68.75 0.00933838C68.9384 0.00933838 69.1221 0.0680253 69.2755 0.17724C69.429 0.286454 69.5446 0.440769 69.6063 0.61873L71.2188 5.45623C71.9375 7.61873 73.6313 9.31248 75.7938 10.0312L80.6313 11.6437C80.8092 11.7054 80.9636 11.821 81.0728 11.9745C81.182 12.128 81.2407 12.3116 81.2407 12.5C81.2407 12.6883 81.182 12.872 81.0728 13.0255C80.9636 13.1789 80.8092 13.2945 80.6313 13.3562L75.7938 14.9687C74.7281 15.3232 73.7597 15.9213 72.9655 16.7155C72.1714 17.5097 71.5733 18.478 71.2188 19.5437L69.6063 24.3812C69.5446 24.5592 69.429 24.7135 69.2755 24.8227C69.1221 24.9319 68.9384 24.9906 68.75 24.9906C68.5617 24.9906 68.378 24.9319 68.2246 24.8227C68.0711 24.7135 67.9555 24.5592 67.8938 24.3812L66.2813 19.5437C65.9268 18.478 65.3287 17.5097 64.5345 16.7155C63.7404 15.9213 62.772 15.3232 61.7063 14.9687L56.875 13.3562C56.6971 13.2945 56.5428 13.1789 56.4335 13.0255C56.3243 12.872 56.2656 12.6883 56.2656 12.5C56.2656 12.3116 56.3243 12.128 56.4335 11.9745C56.5428 11.821 56.6971 11.7054 56.875 11.6437L61.7125 10.0312C63.875 9.31248 65.5688 7.61873 66.2875 5.45623L67.8938 0.62498V0.61873Z" fill="#D20F50"/>
</g>
<defs>
<clipPath id="clip0_213_126">
<rect width="100" height="100" fill="white"/>
</clipPath>
</defs>
</svg>
