<svg width="100" height="100" viewBox="0 0 100 100" fill="none" xmlns="http://www.w3.org/2000/svg">
<g clip-path="url(#clip0_620_629)">
<path d="M47.8563 39.0437C48.5438 36.9812 51.4563 36.9812 52.1438 39.0437L56.175 51.1499C57.0624 53.8112 58.5574 56.2292 60.5415 58.2123C62.5257 60.1954 64.9445 61.689 67.6063 62.5749L79.7063 66.6062C81.7688 67.2937 81.7688 70.2062 79.7063 70.8937L67.6 74.9249C64.9388 75.8122 62.5208 77.3072 60.5377 79.2914C58.5546 81.2756 57.0609 83.6944 56.175 86.3562L52.1438 98.4562C51.9956 98.9078 51.7085 99.3011 51.3235 99.5799C50.9386 99.8587 50.4754 100.009 50 100.009C49.5247 100.009 49.0615 99.8587 48.6765 99.5799C48.2916 99.3011 48.0045 98.9078 47.8563 98.4562L43.825 86.3499C42.9383 83.6893 41.4443 81.2718 39.4612 79.2887C37.4782 77.3057 35.0606 75.8116 32.4 74.9249L20.2938 70.8937C19.8422 70.7454 19.4489 70.4584 19.17 70.0734C18.8912 69.6884 18.7411 69.2253 18.7411 68.7499C18.7411 68.2746 18.8912 67.8114 19.17 67.4264C19.4489 67.0415 19.8422 66.7544 20.2938 66.6062L32.4 62.5749C35.0606 61.6882 37.4782 60.1942 39.4612 58.2111C41.4443 56.2281 42.9383 53.8105 43.825 51.1499L47.8563 39.0437V39.0437ZM23.7125 7.17492C23.8022 6.90426 23.9748 6.66873 24.2059 6.50179C24.4371 6.33485 24.7149 6.245 25 6.245C25.2851 6.245 25.563 6.33485 25.7941 6.50179C26.0253 6.66873 26.1979 6.90426 26.2875 7.17492L28.7063 14.4374C29.7875 17.6749 32.325 20.2124 35.5625 21.2937L42.825 23.7124C43.0957 23.802 43.3312 23.9747 43.4982 24.2058C43.6651 24.4369 43.755 24.7148 43.755 24.9999C43.755 25.285 43.6651 25.5629 43.4982 25.794C43.3312 26.0252 43.0957 26.1978 42.825 26.2874L35.5625 28.7062C33.9658 29.2381 32.5149 30.1347 31.3249 31.3248C30.1348 32.5148 29.2383 33.9657 28.7063 35.5624L26.2875 42.8249C26.1979 43.0956 26.0253 43.3311 25.7941 43.498C25.563 43.665 25.2851 43.7548 25 43.7548C24.7149 43.7548 24.4371 43.665 24.2059 43.498C23.9748 43.3311 23.8022 43.0956 23.7125 42.8249L21.2938 35.5624C20.7618 33.9657 19.8653 32.5148 18.6752 31.3248C17.4851 30.1347 16.0343 29.2381 14.4375 28.7062L7.17504 26.2874C6.90438 26.1978 6.66884 26.0252 6.50191 25.794C6.33497 25.5629 6.24512 25.285 6.24512 24.9999C6.24512 24.7148 6.33497 24.4369 6.50191 24.2058C6.66884 23.9747 6.90438 23.802 7.17504 23.7124L14.4375 21.2937C16.0343 20.7617 17.4851 19.8651 18.6752 18.6751C19.8653 17.485 20.7618 16.0341 21.2938 14.4374L23.7125 7.17492V7.17492ZM67.8938 0.618669C67.9555 0.440708 68.0711 0.286393 68.2246 0.177179C68.378 0.0679643 68.5617 0.00927734 68.75 0.00927734C68.9384 0.00927734 69.1221 0.0679643 69.2755 0.177179C69.429 0.286393 69.5446 0.440708 69.6063 0.618669L71.2188 5.45617C71.9375 7.61867 73.6313 9.31242 75.7938 10.0312L80.6313 11.6437C80.8092 11.7054 80.9636 11.821 81.0728 11.9744C81.182 12.1279 81.2407 12.3116 81.2407 12.4999C81.2407 12.6883 81.182 12.8719 81.0728 13.0254C80.9636 13.1789 80.8092 13.2945 80.6313 13.3562L75.7938 14.9687C74.7281 15.3232 73.7597 15.9213 72.9655 16.7154C72.1714 17.5096 71.5733 18.478 71.2188 19.5437L69.6063 24.3812C69.5446 24.5591 69.429 24.7134 69.2755 24.8227C69.1221 24.9319 68.9384 24.9906 68.75 24.9906C68.5617 24.9906 68.378 24.9319 68.2246 24.8227C68.0711 24.7134 67.9555 24.5591 67.8938 24.3812L66.2813 19.5437C65.9268 18.478 65.3287 17.5096 64.5345 16.7154C63.7404 15.9213 62.772 15.3232 61.7063 14.9687L56.875 13.3562C56.6971 13.2945 56.5428 13.1789 56.4335 13.0254C56.3243 12.8719 56.2656 12.6883 56.2656 12.4999C56.2656 12.3116 56.3243 12.1279 56.4335 11.9744C56.5428 11.821 56.6971 11.7054 56.875 11.6437L61.7125 10.0312C63.875 9.31242 65.5688 7.61867 66.2875 5.45617L67.8938 0.624919V0.618669Z" fill="black"/>
</g>
<defs>
<clipPath id="clip0_620_629">
<rect width="100" height="100" fill="white"/>
</clipPath>
</defs>
</svg>
