<svg width="32" height="21" viewBox="0 0 32 21" fill="none" xmlns="http://www.w3.org/2000/svg">
<path d="M9.37508 0.880005C10.2879 0.880005 11.1314 0.94896 11.9056 1.15582C12.6778 1.29373 13.3134 1.58138 13.8777 1.92615C14.444 2.27289 14.8618 2.76543 15.1469 3.39785C15.4241 4.02829 15.5746 4.79862 15.5746 5.6379C15.5746 6.61509 15.3647 7.45437 14.8697 8.08481C14.444 8.71526 13.749 9.27872 12.8956 9.69442C14.0955 10.0412 15.0083 10.6716 15.5647 11.5109C16.1211 12.3502 16.4775 13.3963 16.4775 14.5902C16.4775 15.5674 16.2696 16.4067 15.9131 17.1081C15.5576 17.814 15.0241 18.4161 14.3648 18.8556C13.7312 19.2792 12.957 19.6239 12.1135 19.8328C11.2872 20.0499 10.4375 20.1663 9.58298 20.1795L0.160004 20.1933V0.880005H9.37508ZM8.81077 8.71723C9.58298 8.71723 10.2166 8.51036 10.7057 8.15574C11.1927 7.80111 11.4086 7.17658 11.4086 6.40822C11.4086 5.98267 11.3393 5.56894 11.2007 5.29115C11.0506 5.00961 10.833 4.76935 10.5671 4.59175C10.2798 4.43591 9.9728 4.31928 9.65426 4.24501C9.30578 4.17605 8.94937 4.17605 8.53158 4.17605H4.45668V8.72708C4.45668 8.71723 8.81275 8.71723 8.81275 8.71723H8.81077ZM9.01867 16.978C9.44438 16.978 9.86217 16.9091 10.2186 16.8401C10.5671 16.7712 10.9235 16.6313 11.2007 16.4146C11.4779 16.1979 11.6957 15.991 11.9056 15.6462C12.0442 15.2995 12.1828 14.8759 12.1828 14.3834C12.1828 13.4062 11.9056 12.7048 11.3393 12.2123C10.775 11.7887 10.0008 11.5818 9.08797 11.5818H4.45668V16.9682H9.02065V16.978H9.01867ZM22.5977 16.9091C23.164 17.4706 24.0055 17.7484 25.1282 17.7484C25.9004 17.7484 26.6053 17.5395 27.1716 17.1849C27.7359 16.7613 28.0824 16.3456 28.221 15.924H31.6663C31.1 17.6006 30.2565 18.7945 29.1358 19.5648C28.0151 20.2642 26.6746 20.6799 25.0569 20.6799C24.0225 20.6845 22.9966 20.494 22.0334 20.1184C21.1666 19.7978 20.3931 19.2685 19.7821 18.5778C19.1304 17.9337 18.6465 17.1411 18.3723 16.2688C18.0258 15.3605 17.8773 14.3834 17.8773 13.2584C17.8773 12.2123 18.0159 11.2252 18.3723 10.317C18.7288 9.41072 19.2158 8.63842 19.8514 7.93902C20.485 7.30858 21.2592 6.74512 22.1027 6.39837C23.0433 6.02577 24.0466 5.8352 25.0589 5.83688C26.2588 5.83688 27.3102 6.04375 28.223 6.53628C29.1338 7.02882 29.8407 7.5844 30.405 8.42368C30.9693 9.19203 31.3871 10.1003 31.6742 11.0794C31.8128 12.0566 31.8821 13.0417 31.8128 14.1588H21.6156C21.6156 15.3014 22.0315 16.3456 22.5977 16.9091V16.9091ZM27.033 9.55651C26.538 9.06397 25.7618 8.78618 24.849 8.78618C24.2154 8.78618 23.7283 8.92409 23.3026 9.13293C22.8769 9.33979 22.5977 9.62546 22.3205 9.90128C22.0617 10.1717 21.8894 10.5125 21.8255 10.8804C21.7542 11.2252 21.6869 11.5109 21.6869 11.7867H28.0151C27.8765 10.7504 27.5201 10.049 27.031 9.55651H27.033ZM20.8415 2.21182H28.718V4.09725H20.8415V2.21182V2.21182Z" fill="#F8F7FD"/>
</svg>
