<svg width="30" height="30" viewBox="0 0 30 30" fill="none" xmlns="http://www.w3.org/2000/svg">
<path fill-rule="evenodd" clip-rule="evenodd" d="M15 0.0400391C6.74209 0.0400391 0.0400085 6.74212 0.0400085 15C0.0400085 23.258 6.74209 29.96 15 29.96C23.243 29.96 29.96 23.258 29.96 15C29.96 6.74212 23.243 0.0400391 15 0.0400391ZM24.8811 6.9366C26.7227 9.17924 27.7422 11.9842 27.7702 14.886C27.3476 14.8056 23.1289 13.9454 18.8784 14.4802C18.7811 14.2707 18.6989 14.0426 18.6016 13.8163C18.3417 13.1992 18.05 12.5672 17.7583 11.965C22.4632 10.052 24.6062 7.29377 24.883 6.93473L24.8811 6.9366ZM15 2.24664C18.2445 2.24664 21.214 3.46214 23.4711 5.4593C23.243 5.78468 21.3113 8.36341 16.769 10.067C14.6746 6.22226 12.3558 3.07318 11.9987 2.58698C12.9825 2.35726 13.9897 2.24304 15 2.24664V2.24664ZM9.56392 3.44718C11.2762 5.8203 12.8581 8.28486 14.3025 10.8299C8.33159 12.4194 3.05819 12.3876 2.48971 12.3876C2.90084 10.4536 3.75318 8.64057 4.98027 7.09009C6.20736 5.53961 7.77602 4.29353 9.56392 3.44905V3.44718ZM2.21482 15.0187V14.626C2.76647 14.6447 8.96552 14.7251 15.3422 12.8103C15.7143 13.5227 16.0547 14.2539 16.3801 14.9832L15.8752 15.1291C9.28903 17.2553 5.78465 23.0635 5.49106 23.5515C3.38137 21.2095 2.21417 18.169 2.21482 15.0169V15.0187ZM15 27.7852C12.1605 27.7897 9.40158 26.8415 7.16471 25.0924C7.38911 24.6212 9.98654 19.6245 17.1898 17.1094C17.2234 17.0926 17.2384 17.0926 17.2721 17.0776C18.4864 20.2124 19.3988 23.456 19.9966 26.7642C18.4184 27.4424 16.7178 27.7899 15 27.7852V27.7852ZM22.1247 25.5955C21.9938 24.8157 21.3113 21.085 19.6413 16.4923C23.6488 15.8602 27.1531 16.8981 27.5907 17.0439C27.3182 18.7693 26.6917 20.4197 25.7507 21.8913C24.8098 23.363 23.5746 24.6241 22.1228 25.5955H22.1247Z" fill="#FF00FF"/>
</svg>
