<svg width="26" height="24" viewBox="0 0 26 24" fill="none" xmlns="http://www.w3.org/2000/svg">
<path fill-rule="evenodd" clip-rule="evenodd" d="M6.2846 7.70531V23.44H0.99295V7.70531H6.2846ZM6.63282 2.8379C6.63282 4.3493 5.48457 5.55581 3.63988 5.55581H3.60461C1.82824 5.55581 0.679993 4.3493 0.679993 2.8379C0.679993 1.29601 1.86351 0.119995 3.67514 0.119995C5.48678 0.119995 6.59976 1.29383 6.63282 2.8379ZM14.4568 14.6525V23.44H9.16735C9.16735 23.44 9.23347 9.18187 9.16735 7.70531H14.4568V9.93104C14.4493 9.9426 14.4417 9.95417 14.4343 9.96577L14.4215 9.98548H14.4568V9.93104C15.1621 8.85737 16.4205 7.33291 19.2283 7.33291C22.7105 7.33291 25.32 9.58041 25.32 14.4151V23.44H20.0283V15.0228C20.0283 12.9059 19.2636 11.4642 17.3484 11.4642C15.8849 11.4642 15.0144 12.4377 14.6331 13.3763C14.4921 13.7117 14.4568 14.1821 14.4568 14.6525Z" fill="#F8F7FD"/>
</svg>
