<svg width="30" height="24" viewBox="0 0 30 24" fill="none" xmlns="http://www.w3.org/2000/svg">
<path d="M9.76576 23.44C20.3926 23.44 26.2059 14.4659 26.2059 6.69713C26.2059 6.446 26.2059 6.19129 26.1954 5.94016C27.3271 5.10515 28.3039 4.07135 29.08 2.8872C28.0228 3.36228 26.9025 3.67539 25.7554 3.81636C26.9637 3.08028 27.8686 1.92211 28.3021 0.55712C27.1669 1.24255 25.9243 1.72373 24.629 1.97956C23.7581 1.0343 22.6057 0.408091 21.3502 0.197935C20.0948 -0.0122215 18.8064 0.205404 17.6846 0.817101C16.5628 1.4288 15.6702 2.40043 15.1451 3.58149C14.62 4.76255 14.4917 6.08713 14.78 7.35005C12.4827 7.23265 10.2354 6.62442 8.18359 5.56481C6.13183 4.5052 4.32152 3.01787 2.87008 1.19928C2.13324 2.49631 1.90837 4.03054 2.24114 5.49041C2.5739 6.95028 3.43936 8.22635 4.66176 9.0595C3.74575 9.02778 2.84987 8.77709 2.0464 8.32765V8.40837C2.04798 9.7671 2.50982 11.0836 3.35386 12.1353C4.19789 13.1871 5.37235 13.9096 6.67872 14.1807C6.18286 14.3199 5.67064 14.3893 5.15632 14.3869C4.79373 14.3881 4.43187 14.3538 4.07568 14.2847C4.4449 15.4543 5.16384 16.477 6.13179 17.2094C7.09975 17.9418 8.26823 18.3473 9.4736 18.3691C7.42593 20.0082 4.89654 20.8972 2.2928 20.8929C1.834 20.8948 1.37553 20.8679 0.919998 20.8122C3.56266 22.5292 6.63172 23.441 9.76576 23.44V23.44Z" fill="#F8F7FD"/>
</svg>
